<?xml version="1.0" encoding="UTF-8"?>
<svg id="Layer_2" data-name="Layer 2" xmlns="http://www.w3.org/2000/svg" viewBox="0 0 1271.74 223.58">
  <defs>
    <style>
      .cls-1 {
        fill: #f9c701;
      }
    </style>
  </defs>
  <g id="Layer_1-2" data-name="Layer 1">
    <path class="cls-1" d="M1259.51,214.45c-1.42-2.24-2.25-4.31-2.75-5.84-4.38-.58-7.01-2.18-8.62-3.6-.62-.55-1.13-1.1-1.59-1.63,1.89-1.12,3.76-2.4,5.6-3.88,12.78-10.12,19.59-26.72,19.59-42.83,0-17.92-7.47-35.02-22.41-45.48-14.94-10.46-31.71-9.63-49.64-9.63h-35.19v.5c2.99,1.49,5.48,5.15,6.14,8.47.83,4.81.83,19.92.83,25.56v50.96c0,6.19.6,12.81-2.06,17.95-2.4-1.28-4.34-2.75-5.79-4-1.34,1.77-3.47,4.09-6.64,5.79-.6.32-1.19.6-1.77.82l5.81-21.92h-.83c-6.31,7.63-14.94,9.13-24.24,9.13-5.81,0-11.95-.34-17.43-2.49v-31.21h5.48c6.14,0,13.78-.67,16.1,5.97h.83v-23.24h-.83c-1.49.67-3.81.83-6.14.83h-15.44v-26.89h5.32c8.13,0,17.59-.83,22.07,6.97h.5v-24.07h-.5c-1.82.83-4.48.83-6.97.83h-58.1v.5c8.14,4.98,6.97,14.44,6.97,23.08v62.08c0,5.72.51,11.74-1.51,16.64-1.86-.88-3.4-1.75-4.59-2.48-1.14,1.02-2.88,2.41-5.18,3.64v-50.86h-34.86v.48c5.97,4.46,6.3,8.29,6.3,15.47v23.61c-2.15.48-4.48.48-6.64.48-24.07,0-31.2-22.65-31.2-42.27s9.29-33.82,30.87-33.82c8.47,0,18.76,3.35,24.4,8.45h.83v-22.17c-8.3-2.24-17.09-3.19-25.73-3.19-34.36,0-61.75,21.05-61.75,55.35,0,25.9,14.92,42.93,36.44,50.21-14.29,1.1-25.53-2.34-31.47-4.63-3.48,2.21-6.75,3.81-9.7,4.96-5.11-4.98-9.1-10.89-12.86-17.16l-19.76-33.04c10.96-4.65,19.76-13.78,19.76-26.23,0-11.12-4.98-19.92-14.78-25.23-7.47-3.98-14.11-3.82-22.24-3.82h-49.14v.5c8.14,5.15,6.98,14.61,6.98,23.24v61.75c0,8.64,1.16,18.1-6.98,23.24v.14c-7.28-.14-13.44-4.96-14.05-5.45-7.12.45-14.98.54-23.43-.01,19.34-8.31,32.84-25.27,32.84-49.03,0-34.98-25.57-54.38-60.43-54.38s-62.41,20.67-62.41,54.54c0,25.43,15.16,43.73,37.32,51.09-5.55-.55-11.85-1.27-18.79-2.21-.43.39-7.24,6.32-15.57,3.86-5.22-1.54-7.98-5.48-8.77-6.71-1.91.95-4.64,2.19-8.02,3.35-4.76,1.63-9.04,2.48-14.24,3.09-5.5-6.21-5.63-13.21-5.63-22.01v-25.57l3.32.17c5.97,0,12.78-.33,14.94,5.97h.83v-23.24h-.83c-1.5.67-3.65.83-6.14.83h-12.12v-26.89h5.31c8.13,0,17.6-.99,22.08,6.81h.5v-24.07h-.5c-1.83.99-4.48.99-6.97.99h-58.1v.5c8.13,4.98,6.97,14.44,6.97,23.08v61.91c0,6.76.69,13.82-2.69,19.06-4.11-.38-8.16-.76-12.58-.97l5.14-19.41h-.83c-6.31,7.63-14.94,9.13-24.23,9.13-5.81,0-11.96-.34-17.43-2.49v-31.21h5.47c6.15,0,13.78-.67,16.11,5.97h.83v-23.24h-.83c-1.5.67-3.82.83-6.15.83h-15.43v-26.89h5.31c8.13,0,17.59-.83,22.08,6.97h.49v-24.07h-.49c-1.83.83-4.49.83-6.98.83h-58.1v.5c8.14,4.98,6.98,14.44,6.98,23.08v62.08c0,6.08.57,12.48-1.93,17.54-.76-.4-1.53-.86-2.29-1.37-3.61-2.43-5.88-5.39-7.21-7.47-1.79,1.97-3.51,3.54-5.04,4.81-2.64-3.4-5-7.06-7.27-10.85l-19.76-33.04c10.96-4.65,19.76-13.78,19.76-26.23,0-11.12-4.98-19.92-14.77-25.23-7.48-3.98-14.12-3.82-22.25-3.82h-49.14v.5c8.14,5.15,6.98,14.61,6.98,23.24v61.75c0,8.31,1.07,17.37-6.08,22.62h0c-7.19-1.38-12.7-4.6-16.18-7.02-.94,1.19-5.18,6.27-12.55,7.28-9.85,1.34-16.56-5.79-17.16-6.46-2.2.5-7.06,1.33-12.9-.12-1.02-1.34-1.96-2.74-2.85-4.18l-33.7-53.28,36.69-43.83v-.5h-40.67v.5c3.16,1.83,6.64,4.65,6.64,8.97,0,4.81-4.81,9.79-7.64,13.28l-20.75,26.39v-25.4c0-8.63-1.16-18.09,6.98-23.24v-.5h-44.66v.5c8.14,5.15,6.97,14.44,6.97,23.24v61.75c0,5.54.48,11.42-1.33,16.28-3.73-2.06-6.52-4.29-8.34-5.9-4.67,1.7-8.64,2.8-11.47,3.5-.68.17-1.71.42-3.07.7,8.02-6.18,12.1-15.03,12.1-24.91s-4.32-17.36-12.29-24.04c-6.64-5.58-14.11-8.6-22.07-11.95-6.15-2.54-15.77-5.57-15.77-13.21s7.96-10.19,14.44-10.19c8.3,0,16.43,3.18,23.4,7.48v-18.63c-8.63-3.18-18.59-4.77-27.88-4.77-10.13,0-20.42,1.91-28.89,7.64-7.63,5.25-12.28,14.01-12.28,23.09,0,35.66,50.63,31.68,50.63,51.11,0,8.91-10.13,11.3-17.6,11.3-11.95,0-25.56-5.09-34.86-12.42l3.82,15.96c-3.07-.9-5.79-1.81-8.13-2.65-2.39,1.83-4.66,3.05-6.66,3.88-.57-3.85-.31-8.05-.31-12.1v-61.92c0-8.63-1.17-18.09,6.97-23.24v-.5h-44.66v.5c8.14,5.15,6.98,14.61,6.98,23.24v61.92c0,1.13.02,2.27.04,3.42-4.37-3.94-8.97-8.5-13.8-13.65-7.5-8-15.86-17.65-25.05-28.95-9.21-11.3-19.71-24.95-31.5-40.95.01,0,.03-.01.04-.01l-2.72-3.66c3.15-1.29,6.2-2.76,9.12-4.43,6.3-3.6,11.75-7.8,16.35-12.6,4.6-4.8,8.15-10.1,10.65-15.9,2.5-5.8,3.75-11.7,3.75-17.7,0-7.6-1.89-15.05-5.68-22.35-3.79-7.3-8.87-13.35-15.25-18.15-5.79-4.2-12.42-7.3-19.89-9.3-7.48-2-16.4-3-26.77-3h-6.52c-.23.01-.46.01-.69.01-2.97.16-6,.3-9.09.39-3.68.12-7.28.19-10.8.2H17.56c3,1.62,5.4,3.38,7.2,5.3,1.8,1.91,3.19,4.38,4.2,7.41.99,3.02,1.69,6.76,2.1,11.19.39,4.44.6,10.09.6,16.94v128.57c0,6.86-.21,12.5-.6,16.94-.41,4.44-1.11,8.17-2.1,11.19-.96,2.89-2.28,5.28-3.97,7.16-2.47-1.4-4.33-2.86-5.52-3.9-.64,2.76-2.1,7.41-5.71,12.07-4.91,6.33-10.98,9.05-13.76,10.09,315.74-.01,631.47-.01,947.21,0,108.17,0,216.35.01,324.53.02-2.5-.68-5.98-2.07-8.98-5.02-1.66-1.63-2.74-3.31-3.25-4.11ZM152.24,199.58c-2.3.38-10.76,1.68-21.97.8-8.03-.64-20.95-2.66-35.65-9.77-7.12,4.58-13.49,7.67-18.3,9.73-.28-.67-.54-1.36-.78-2.09-.98-3-1.66-6.7-2.05-11.1-.4-4.4-.59-10-.59-16.8v-19.84h-.02c.01-4.7.02-9.41.03-14.11V28.88h8.06v3.78c1.25.2,2.56.49,3.93.89,4.44,1.31,7.6,3.3,9.05,4.3,4.84,3.32,4.48,5.07,9.35,8.26,3.54,2.33,6.76,3.4,8.34,3.91,4.19,1.36,5.16.84,9.21,1.76,7.39,1.7,12.63,5.37,15.61,7.46,2.1,1.47,4.77,3.57,7.55,6.44-3.28-.82-6.11-1.2-8.24-1.38-2.92-.26-6.89-.59-11.8.32-2.2.41-3.89.93-6.37,1.7-4.09,1.26-4.62,1.77-7.3,2.57-1.45.44-5.54,1.67-10.55,1.59-3.79-.06-4.02-.79-10.26-1.28-2.87-.22-4.78-.37-7.26-.16-.43.04-.85.08-1.26.13v43.98c33.61,40.63,57.89,69.77,63.04,75.68,2.43,2.78,4.52,4.9,5.99,6.32,1.54,1.49,3.03,2.84,4.41,4.04-.71.14-1.44.27-2.17.39ZM380.29,207.16c-1.85.35-3.93.73-6.19,1.07-5.29-5.37-4.4-13.59-4.4-21.17v-24.9l17.27,29.72c2.88,4.98,5.18,8.65,7.7,11.36-4.39,1.6-9.2,2.96-14.38,3.92ZM527.57,117.68h1.66c3.32,0,6.8.33,9.63,2.32,4.48,3.15,6.63,8.8,6.63,14.11,0,10.46-7.63,19.26-17.92,21.08v-37.51ZM533.77,209.77s-.01,0-.01,0h0c-7.27-5.24-6.18-14.35-6.18-22.7v-23.07l19.25,36.19c3.47,6.14,6.76,9.14,11.21,10.43-7.78.65-15.85-.14-24.26-.84ZM809.93,194.9c-9.46,0-17.76-6.04-22.41-13.67-4.65-7.95-7.8-20.19-7.8-29.41,0-16.38,8.63-34.35,28.22-34.35,22.74,0,30.21,25.92,30.21,44.04,0,7.79-1.16,15.9-6.14,22.26-5.31,6.84-13.28,11.13-22.08,11.13ZM912.69,117.68h1.66c3.32,0,6.8.33,9.62,2.32,4.49,3.15,6.64,8.8,6.64,14.11,0,10.46-7.63,19.26-17.92,21.08v-37.51ZM924.71,207.3c-3.18.33-5.38.77-7.41,1.16-5.54-5.37-4.61-13.71-4.61-21.4v-23.07l19.25,36.19c1.73,3.07,3.42,5.35,5.23,7.03-3.51-.35-7.53-.42-12.46.09ZM1202.18,120.32c3.65-.66,7.31-1.16,10.96-1.16,20.42,0,26.39,20.42,26.39,37.51,0,8.8-1.33,17.77-5.81,25.4-5.48,9.13-12.12,12.29-22.57,12.29-2.99,0-5.98-.34-8.97-1.33v-72.71Z"/>
  </g>
</svg>