<?xml version="1.0" encoding="UTF-8"?>
<svg id="Layer_2" data-name="Layer 2" xmlns="http://www.w3.org/2000/svg" viewBox="0 0 1031.61 557.21">
  <defs>
    <style>
      .cls-1 {
        fill: #f7c916;
      }
    </style>
  </defs>
  <g id="Layer_1-2" data-name="Layer 1">
    <g id="Layer_1-3" data-name="Layer 1">
      <path id="Path_22" data-name="Path 22" class="cls-1" d="M464.83,154.06c-.21.96.39,1.41,1.36,1.27-.84,1.77-2.48-.23-3.22-1.11.1-.17.18-.37.34-.59.24.18.46.38.72.58.01-.27.04-.54.07-.8.45,0,.54.27.75.66h-.01ZM205.1,75.02c-.32.35-.91.37-1.25.69-1.1-2.48-1.68-2-4.19-2.04,1.29-.86,2.57-1.72,3.86-2.56-.45-.17-.79-.68-1.22-.84.62-.38,1.25-.77,1.9-1.17-1.43-.76-2.07-1.39-3.59-.87-1.65.56-2.2.97-3.76.21-1.49-.72-2.29-.17-3.87-.1-.68.03-1.63,1.63-2.17,2.15.65.28,3.57,1.06,3.57,1.76,0,1.49.06,3.38-2.03,3-.94-.17-2.08-2.42-3.05-2.08-1.04.35-2.57,1.28-1.28,2.34,2.41,1.94,5.22,2.59,7.21,5.08.91,1.14,1.62,2.63,2.98,2.96,1.11.22,2.96-.68,2.49-2.11,1.89.83,7.09-2.66,3.67-3.87.49-.24,1.01-.43,1.55-.56-.27-.65-.54-1.29-.8-1.96h-.01ZM461.23,154c.1.39-.49,1.41.41,2.11-.16-.84,0-1.71.46-2.43-.38-.11-.78-.16-1.18-.14-.07.39.11.28.31.48h0ZM261.17,105.01c.97.86,3.79,2.5,4.87.75,1.11-1.8.23-2.65.9-4.43-2.28-3.18-8.33,1.37-5.77,3.69ZM278.1,83.86c-.65.39-3.48,1.6-3.21,2.36.63,1.75,2.7.34,3.29-1.01.75-1.69,6.81,2.28,8.02,2.9-.51,1.69-2.83,1.7-4.19,2.14,1.07.18,2.29-.08,1.87,1.53,1.13-.56,2.69-.89,2.95-2.45,1.03.69,2.69,1.42,2.66,2.98-1.51-.24-3.05.16-4.25,1.11.9.51,1.92.78,2.95.76,1.9-.34,1.74-.41,2.46,1.6-1.24-.25-2.46-.51-3.67-.75l.38,2.45c-.87.1-1.74.21-2.62.32,3.07,1.39,6.18,2.57,9.33,3.77,1.27.44,2.38,1.25,3.17,2.34,1.35,1.48,2.21,1.39,4.12,1.66-.42.65-.83,1.29-1.25,1.93,1.28-.03,3.55-.62,4.74-.11,1.94.84,1.2,2.08.96,4.17-.94-.15-2.45-.83-3.1,0,.76.34,1.49.72,2.22,1.07-2.22,1.17-3.1,2.32-5.21.84.17,1.63.62,3.41.1,5.01-2.23-.97-4.17-2.52-5.6-4.49,1.11-.52,2.83-.68,2.31-2.43-.72.25-2.28,1.22-3,1.07-1-.24-1.89-2.04-2.8-2.56-1.07-.59-1.82-.72-2.48.25-.96,1.45.75,1.34.82,2.93-.8-.1-1.6-.21-2.42-.31.27.82.52,1.63.79,2.45,1.21-.46,1.49-1.06,1.96.34.37,1.17.75,2.32,1.14,3.5.37-1.83,1.27-1,2.36-.51,1.36.62,1.21,1,1.53,2.63.28,1.36,1.48.9,2.08,1.91.49.82.35,2.86.49,3.84-.49-.63-.97-1.28-1.46-1.91-.87,1.52,1.35,1.94.68,3.52-.32-.17-.76-.13-1.07-.32.23.59.45,1.2.68,1.8-.62.2-2.25-1.94-3.21-2.55-1.76-1.11-3.52-2.21-5.29-3.32.24.46.25,1.04.49,1.51-1.04-.46-2.05-.93-3.1-1.39.59,1.01,1.17,2.04,1.74,3.05.42.73,2.04.59,2.7,1.06,1.07.75,2.14,1.52,3.21,2.29,1.05.75.63,1.27.46,2.66-2.9-.75-5.79-1.49-8.67-2.24-1.05-.25-1-1.58-1.62-1.74-1.46-.38-2.94-.76-4.4-1.13.17-.25.32-.49.49-.76-1.51.04-2.38-.61-3.67-1.38.76-.39,1.55-.79,2.32-1.18-1.32-.73-2.86-.59-3.69-1.86-1.49-2.31-1.45-3.7-3.76-2.2,0-1-.55-1.52-1.46-1.38.06.44-.24.94-.2,1.38-1.32-.31-2.74-1.17-3.83-.15-1.13,1.06-2.89.7-4.35.79-.97.04-2.49-1.8-1.98-2.7.68-1.21,2.59-1.59,2.34-3.05,2.14.27,4.6,1.08,6.68.49.52-.15,3.76-.65,3.95-1.14.41-1.11-1.87-2.24-2.42-2.66,1.79-1.8,3.58-3.59,5.36-5.39.48-.46,1.28-.82.92-1.48-.76-1.39-1.52-2.79-2.27-4.17-1.15-2.11-3.53-1.53-4.62-3.42-.84-1.46-.72-1.34-2.17-.76-1.11.42-2.21.83-3.31,1.25,0-2.77.48-2.38,2.89-3.08-1.31-1.07-4.12-4.76-5.7-3.1-.13-.75-.3-1.48-.44-2.2-.13-.68-1.32.07-1.79-.14-1.32-.62-1.15-3.32-2.98-1.6,1.48.42,1.67,1.14,2.32,2.56-3.49.84-5.63.01-9.09-.96.86.82,1.73,1.63,2.6,2.46-1.17.44-1.46-1.07-2.52-1.18-.37-.04-.66,1.07-1.1.9-.73-.27-1.42-.55-2.11-.82-2.03-.79-4.93-.31-7.11-.41-1.12-.04-2.22-.32-3.21-.84-1.28-1.18.44-1.83-1.93-1.6-1.04.1-1.65,1.1-2.91.35-1.77-.88-3.25-2.26-4.24-3.97l6.77.59c-2.24-2.39-4.28-2.07-7.39-2.38-.34-.04-.65-3.38-.76-3.88-.15-1.08,1.2-3.31,1.59-4.32.75-2.42,2.56-4.37,4.91-5.31,3.22-1.39,4.66-1.39,8.13-.99-.21.84-.41,1.69-.63,2.5,2.27-.52,4.48-1.27,6.59-2.25.84-.32,2.34.08,3.22.14,1.22.06.93,1.68,1.6,2.59.73,1.01,1.21.84,1.83,2.14.89,1.8.66,1.86-.3,3.62-.82,1.49.42,1.48,1.31.61,1.56-1.56,1.42-1.48,3.28-.35.52.31,2.04-1.6,2.49-2.04.66-.63,2.59-.46,3.46-.59,1.69-.24,4.7,1.08,5.97,2.34,1.1,1.04,3.76,5.25,4.86,4.87,1.83-.65,5.17-1.04,5.97,1.56v.02ZM187.5,55.14c-.72.02-1.41.34-1.89.89h2.46c-2.6,1.8,1.04,1.93,2.29,1.66,1.91-.41,3.87-.58,5.84-.82-.23.66-.91,1.06-1.6.94.17.12.34.25.49.39-.78-.12-1.56.22-2,.87.8,0,1.58.2,2.29.56-.5.02-.99.09-1.48.2.15,1.29,1.17,1.18,2.2,1.52.56.18.84-.75,1.38-.7,1.55.1,3.63.8,4.93-.49-.49-.24-.87-.79-1.37-1.01.53-.37.81-1,.73-1.65.27.27.72.38,1,.66.24-1.11-.48-1.45-.55-2.38-.04-.82.39-1.67.35-2.42-.23-.82-.67-1.58-1.28-2.18-.6-.24-1.84-1.06-2.43-.7-1.77,1.07-3.15-.44-5.35.38-2.38.89,1.58,1.08,1.83,2.17-.44-.1-.9.11-1.32,0,.6.83,1.21,1.66,1.83,2.49-.83-.46-6.88-6.25-6.6-2.27.58.01,1.15.04,1.74.07-1.32.52-1.04,1.91.37,1.48-.38,1.27-2.67.14-3.87.34h0ZM187.62,93.67c-.37-.17-.72-.38-1.04-.63-.38-.09-.77-.14-1.17-.14.86.84.62,1.79.59,2.91,1.1-1.08,2.1-2.01,3.69-1.56-.96,1.36.51,1.11.51,2.18,0,.63-2.36,1.38-2.96,1.45-2.35.24-4.56-1.07-6.91-1.07.28-.17.51-.45.77-.63-1.39-.3-2.8-.58-4.19-.86.2-.34.14-.86.32-1.2-1.18-.39-1.22.69-2.05,1.36-.75.66-1.7,1.05-2.7,1.13-2,.34-2.72,1.75-4.7,1.89-2.93.25-5.84.46-8.75.69-2.38.18-2.96-1.2-2.72-3.77-4.15-.22-9.12.62-10.62-4.56,2.57-.55,5.91-2,8.51-1.66,1.65.32,3.32.55,5,.66.75,0,4.25-.62,2.1-1.17-2.88-.9-5.88-1.4-8.89-1.49-2.15.03-4.31.04-6.46.08-1.66.03-2.03-.7-3.29-1.98l6.38-2.83c-2.04.07-4.08.13-6.12.21.21-.32.24-.82.45-1.13h-2.9c-.31-1.94,1.56-2.91,2.72-3.98-.45-.1-.84-.55-1.29-.63,2.58-2.07,5.51-3.65,8.65-4.67,1.63-.62,2.29-1.24,3.77-.37,2.01,1.17.56,2.7-.82,3.84.84-.06,1.7-.13,2.56-.21.82-.06,1.04-1.82,1.76-2,1.05-.28,4.08,1.9,5.14,2.41-.41.55-.82,1.08-1.22,1.63,1.58,0,1.68.11,2.51-1.32.34-.58,2.36.31,2.97.46-.9-.93-1.8-1.89-2.7-2.84,1.58-.24,5.24-.14,5.97,2.03.52,1.56,1.04,3.12,1.59,4.69.48,1.41,1.11.58,2.31.1-.62-1.69-1.21-3.39-1.8-5.09-.27-.76-.55-1.52-.82-2.28-.25-.7,1.04-1.03.35-2.14.58.28,2.56,1.73,2.94,1.15.82-1.27,1.79.32,2.88.93,2.59,1.43,3.32,5.66,4.48,8.49.48,1.18-.54,2.56-.18,3.41.37.89,3.25,1.98,4.01,2.43,2.04,1.25,4.35,2.65,6.32,2.25.1,1.25.37,4.88-1.42,2.14-.11.37-.46.63-.59,1-1.24-1.06-2.51-1.7-2.9.72h-.01ZM196.59,96.57c.34.4.73.75,1.18,1.03.23-.54.42-.38.66-.68.06.64.58,1.13,1.22,1.17.08-.21.15-.44.24-.68.59,1.75,3.32,1.93,4.79,2.2,1.55.28,3.03-1.28,4.35-2.12-1.69-1.57-3.51-3.01-5.43-4.29-1.1-.73-1.98-2-2.98-.96-.76.76-2.01,1.7-.7,2.66-.24.06-.44.11-.68.15-.68,1.34-1.91.15-2.63,1.52h-.02ZM462.57,152.26c-.18.09-.36.17-.55.24.1.2.21.38.31.58.47-.58,1.11-1.02,1.83-1.24l-.42-.55c1.21-.13,1.05-1.8.51-1.53-.89.44-3.39,1.21-1.67,2.51ZM252.12,124.21c-1.91-1.42-2.29-1.53-4.57-1.21,2.04-2.03-3.25-4.66-4.26-5.35-.77-.54-2.01-.28-2.66-.99-.99-1.08-1.31-1.51-2.36-.06-.26-.37-.46-.78-.59-1.21,2.11-.37,1.43-3.26-.35-2.48-1.84.8-1.76,2.41-2.31,4.46-.23.84-.35,1.72-.52,2.57-.11.62.51,1.58.28,2.11-.27.65-2.38,2.18-2.9,2.98.55-.06,3.98-.94,4.25-.76.41.25.68,3.77,1.45,3.22,1.13-.8,2.04-2.43,3.04-2.8,1.68-.62,1.48-1.97,3.18-2.63-.38,2.72,4.22,3.25,5.87,3.77.82-.55,1.63-1.1,2.46-1.63h0ZM218.19,62.31c.66,1.48,2.57.13,3.46-.48.69,1.46.63,1.69,2.11,1.81,1.22.13,2.31.59,2.59-1.17.21.39.65.66.84,1.07-.01-.62.3-1.24.31-1.84,1.58.65-.1,2.58,1.68,2.66s3.53.17,5.31.24c0-.42-.03-.85-.07-1.27.96,1.27,3.35,1.79,3.87-.14.48,1.93,3.18.69,4.52.49-.14-.73-.25-1.46-.38-2.18,1.83-.03.83,2,2.17,2.46.99.5,2.1.72,3.21.63.72-.13,4.02-.18,4.22-.94.49-1.66,1.03-1.52,2.57-2.03-.71-.59-1.6-.94-2.52-.99.72-.52,1.42-1.06,2.12-1.58-2.77-2.34-6.21-4.17-9.75-3-1.51.51-2.79-.27-4.4.3-1.52.54-3.08.97-4.66,1.28.34.22.62.59.96.77-1.62-.35-3.91-1.39-5.54-1.2-.49.06-1.46,1-1.91.72-.77-.49-1.55-1.01-2.35-1.51-.42-.27-3.69-2.11-3.71-2.2-.3-1.04,2.94.21,3.28-1.28-.93-.25-1.83-.52-2.76-.79-1.27-.35-.68-1.01-1.62-1.63-1.65-1.04-3.39.42-5.11.07-1.74-.34-2.59-1.86-4.18-2.1-1.76-.28-3.94-1.11-5.66-.62-2.84.8-1.98,1.96-.14,3.79,1.8,1.8,2.86,1.46,5.09,1.15,1.91-.27,2.83-.97,4.21.65.83.97,3.11,2.84,1.66,4.24-.86,2.14-.37,2.51.6,4.6h-.02ZM268.1,102.18c.78-.89,2.14-.98,3.02-.2.41.36.67.86.72,1.41-.39-.01-4.83,0-3.74-1.21ZM227.43,15.68c-1.52.6-3.04,1.21-4.55,1.82-1.58-.75-3.15-1.48-4.74-2.24,2.48-1.42,5.39-3,7.74-.96,1.8-3.95,6.35-2.03,9.77-2.24-.9-.44-1.82-.87-2.7-1.3,1.29-.03,2.57-.08,3.87-.11-.27-.66-.54-1.34-.79-2.01,1.14.04,2.82-.28,3.83.37,1.29.84,3,2.53,4.46,2.91,3.38.84,6.75,1.68,10.13,2.52l-9.16-4.94c1.04-.9,2.49-2.8,3.83-2.89,1.21-.07,2.38-.14,3.57-.21.86-.07,1.03-1.04,1.76-1.31.96-.37,4,.48,4.98.89,1.83.75,3.63,1.49,5.46,2.24l-4.65-3.84,7.75.13c1.77.04,3.76,2.12,5.25,3.14-.42-.86-.86-1.72-1.28-2.56,3.11-.39,6.57-1.42,9.65-1.43,3.29,0,6.8.97,10.06,1.43-1.76.99-3.52,1.97-5.28,2.98,3.24-.7,6.21-1.76,9.47-1.15,3.66.65,7.26,1.61,10.77,2.86-2.69,1.42-6.4,4.55-9.37,4.76-4.14.3-8.27.62-12.43.93,1.89.32,3.73.63,5.61.96l-9.67,2.87c5.28-1.06,10.56-2.12,15.86-3.19-.15,2.58-7.14,4.38-9.26,5.69-1.58.96-3.74,3.03-5.52,3.38-2.08.44-4.14.86-6.19,1.27,1.3.07,2.56.16,3.87.21-1.07,1.31-2.42,2.37-3.94,3.1-1.21.63-2.9-.3-4.18-.63.2.62.38,1.27.58,1.91-3.56.72-7.15,1.07-10.72,1.48,1.48.13,7.14-.53,6.66,1.83h-5.9c1.42.37,5.91.52,5.71,2.65-1.7.22-3.41.42-5.12.65.98.52,1.94,1.04,2.91,1.59-.84,1.45-2.24,2.49-3.87,2.88-1.03.37-3.35-1.14-3.98-.63-.84.69,1.87,1.48.17,2.98-.56.51-3.67,2.76-3.05,3.72.73,1.11.75.75,1.83.1.92-.55,1.14-.15,2.07.41.56.32.45,1.69.52,2.34.07.55-1.35.75-1.76.9-.63.22-1.14-.59-1.31-.52-.49.18-.73,1.13-1.25,1.31-1.72.51-3.42,1.04-5.12,1.56.37-1.51.87-2.01-.32-2.95-.82-.66-1.46.99-2.67-.31-.13,2.34-2.87,1.04-3.49-.35.37,1.83-1.25,1.14-2.17.82-1.08-.37-1.48,1.03-2.97,1.03-1.29-.04-2.58-.16-3.86-.34-1.27-.13-2.46.9-2.79-1.01-.72,2.21-3.35.83-3.41-1.14-1.11,1.27-1.55,2.49-2.83.79.99-.62-.27-1.21.18-1.79.46-.6,2.11-.92,2.79-1.22,1.98-.84,2.98-.34,4.62-2.04-2.38-.22-2.38-.45-3.6-2.69,1.59-.6,3.32-.7,4.97-.31,1.46.2,1.6,2.51,3.28,2.95,4.11,1.08,5.64-1.24,7.99-4.56-1.42,1.53-4.31,5.12-6.74,3.38-3.08-2.21-.54-3.9.42-6.8-1.32,1.25-2.7,3.53-4.5,3.14-2.56-.56-5.05-.72-2.34-3.45,2.94-2.98,8.26-2.45,11.55-.7-1.22-2.42-2.98-4.53-5.14-6.18-2.27-1.56-6.42-1.28-4.28-5.42-.08.2,6.95.2,7.36.31,2.43.63,5.15,3.12,7.35,4.48-1.73-1.6-3.48-3.19-5.21-4.8,5.21-.96,10.32-2.04,15.47-3.39-.82-.35-1.6-.72-2.42-1.07,1.3-1.17,2.59-2.34,3.87-3.52-3.03,1.36-5.19,2.34-7.63,4.69-.79.76-3.22.7-4.21.89-1.59.31-3.21.6-4.8.92l2.91-2.45c-1.29.39-2.59.77-3.87,1.18.32-.3.55-.76.87-1.07-.55.16-2.36.37-2.45,1-.2,1.82-.38,1.45-2.04,1.45-2.03-.08-4.05-.29-6.05-.63,1.81-1.73,4.04-2.94,6.47-3.52-3.21.24-4.5.49-7.22,2.34-2.17,1.46-4.59-.07-6.98-.75,2.22-1.06,3.69-.94,6.09-1.17,2.29-.27,4.5-1.03,6.47-2.24-2.42.62-5.09,1.62-7.6,1.72-2.76.1-5.24,1.45-7.57-.23,1.38-1.15,2.77-2.34,4.15-3.5l-.04-.04ZM192.67,43.22c-1-1.28-2.27-1.08-3.62-.82-1.55.31-.59,1.41.52,1.37,1.1-.17,1.96-.89,3.1-.55h0ZM253.21,135.23c.82-.79,3.39-3.39.9-4.19-1.04-.34-2.07.91-2.17,1.8-.13,1.29.42,1.49,1.25,2.39h.01ZM454.46,179.16c-.32.17-.54.62-.86.79,2.63,2.24,6.22-1.91,8.75-2.6.86-.24,1.49.55,1.83-.52.28-.96.59-1.93.89-2.9.23-1.35-.19-2.73-1.12-3.73,1.77-1.24,2.34-1.27,2.52-3.56-.92.3-1.15-1.38-1.86-2.2-.44-.51-2.07.23-2.69.38.15-.24.3-.49.44-.75-2.01-1.2-4.01,1.05-4.98,2.7.65.25,1.31.46,1.94.7-.82.63-1.24,1.31-2.22,1.05-.65-.18-1.58-.7-2.2-.34-1.11.59-.79.73-.41,2.03.17.62-.83,1.28-1.22,1.68,1.03.56,2.17.91,3.33,1.01-1,.86-1.91,1.82-2.72,2.87,1.14-.24,2.31-.76,3.46-.37-.77.17-2.36.14-2.84.83-.43.66-1.12,1.11-1.9,1.24.48.07.92.37,1.41.42-.47.28-.95.53-1.45.75.65.17,1.3.32,1.93.48l-.02.04ZM241.38,131.02c.13.32.3,1.45.68,1.41,2.38-.21,5.12-1.25,5.49-4.25-.6-.03-1.21-.04-1.8-.06-1.31.04-2.57.49-3.62,1.28-.82.68-1.11.58-.75,1.63h0ZM213.95,60.54c.56,3.17-1.55,2.83-3.77,3.14-.94-.52-4.81-1.9-5.16-2.9-.83-2.51,4.15-3.38,5.15-3.67,1.72-.56,3.5,1.86,3.8,3.43h-.01ZM180.84,35.86c.21-.54.44-1.07.72-1.58l-2.52.08c.9-2.6,2.22-2.07,4.69-2.42,2.21-.31,3.18,1.17,4.01,3.07,1.07-.59,5.05-2.2,4.52.99,1.6-.27,1.97-.49,3.25.56.72.59.6.53.32,1.51-.2.7.83,1.41,1.28,1.9,2.98,3.39-3.04,3.52-3.67,2.39-.72-1.32-.82-2.11-2.2-2.27-1.38-.18-3.18.07-4.17-1.1-.86-1.03-5.76,3.21-6.25-1.14,1.53-1,5.01.96,4.77-1.56-.75-.13-1.49-.28-2.27-.42.3-.17.49-.53.79-.72-1.34-1.34-1.82.89-3.29.72h.02ZM181.53,47.3c.69.8,1.55-.45.82-1.32-.48-.59-1.03-1.12-1.63-1.59-.9-.68-1.63-1.65-2.79-1.13.21.82.42,1.63.63,2.46.82.69,2.48.99,2.97,1.58h0ZM198.8,27.26c-.69-1.72-4.9-1.25-3.63,1.13,1.86.71,5.09,2.56,3.63-1.13h0ZM204.31,40.64c-.82.39-1.72.22-2.55.6.7.32,2.01,1.69,2.29,1.69.88-.07,1.76-.26,2.59-.56.91-.24,2.6-.27,3.14-1.17.48-.82-.76-1.24.41-2.41-1.04-.38-2.46-.37-3.32-.72-.73-.28-1.58-1.27-2.52-1.63-1.32-.56-6.12-1.44-3.45,1.35-.31.04-.62.1-.91.14.65,2.58,2.88,1.29,4.32,2.69h0ZM160.73,41.6c-2.63.42-3.83-.08-3.28,3.1,1.18,0,2.21,1.69,3.21,1.42,1.6-.39,3.22-.82,4.81-1.21,1.14-.3.55-.72.83-1.53.21-.69-1.79-.13-2.2-.87,1.35-.3,2.66-.32,3.6-1.56-2-.87-5.01.34-6.99.66h.02ZM165.58,52.67c1.05.65,2.08,1.28,3.12,1.91-.72.3-1.41.58-2.11.86.66.3,3.39.97,3.28,1.76-.24,1.66-1.83.87-3.22.79-.7-.04-3.65.27-3.83-.56-.44-1.86-.66-1.69-2.39-1.52.27-.14.56-.31.84-.46-1.13-.9-2.55-2.76-3.97-2.52-2.63.46-1.68-.56-3.81-1.41-.41-.14-3.69.13-3.73.93s2.66,1.11,3.29,1.29c-2.17-.17-3.73-.44-5.73.44v1.07c1.38.8,3.79.18,5.32.13-.7.48-6.91.11-6.77,1.66.15,1.45,5.39-.15,6.07-.34-2.01,1.67-6.18.45-7.43,2.87,1.33.59,2.82.7,4.22.32-.06.28-.14.56-.21.84.7.24,1.42.43,2.15.56-.52-1.49,1.15-1.25,1.41.21,1.83-1.11,2.14-1.25,2.73-3.46,1.35.45.79,1.45.56,2.62,1.04-.08,3.48.39,3.62-1.08.65,1.52,3.18.76,4.28,0-2.11,2.24-6.45,2.62-9.43,3.65,3.6,2.32,5.08,1.56,8.94.17,2.15-.76,4.29-1.55,6.45-2.32,1.25-.44,1.93.72,3.12.65.59-.04.68-1.1,1.65-1.1h3.07c1.34,0,1.93-1.62,2.25-3.03.41-1.79.24-3.46-2.12-3.14-2.84.39-.46,1.22-1.59,2.66-.42-1.48-.91-1.7-2.17-2.08-.79-.24-.97-1.76-1.65-2.31-1.41-1.11-.32-4.43-3.18-3.25-.82,1.24-1.84,2.33-3.03,3.22v-.03ZM204.68,26.86c.42,3.35,4.08,3.35,6.29,2.46-.76,1.17-1.83,1.07-3,1.24-.96.14-.6,1.32.24,1.21s.77,1.52,1.8.72c.73-.56,1.18-1.13,2.11-.77-.04.23-.08.49-.14.73,1.03.55,1.37-.31,2.24-.73.24-.13,1.25,1.1.96-.53,1.63.66,4.38-.17,5.52.86-1.35.18-2.7.35-4.07.52,2,.82,4.04.38,6.14.28-3.86.72-7.36.42-11.02,1.91,1.07.65,2.26,1.1,3.49,1.32-.66.06-1.31.11-1.94.14,1.07,1.62,4.02,1.04,5.84,1.45-1.22.14-2.45.3-3.67.42,1.62,2.56,5.24,2.1,7.68,2.24-.15-.63-.63-1.14-1.25-1.33,1.63-.07,2.32.63,3.62,1.66-.59-1.21-1.18-2.41-1.79-3.65,1.21,1.21,2.42,2.36,3.62,3.53.54-1.39.96-2.08.04-3.41,5.08,2.73-.45-2.14,2.96-3.14-.34,1.08.2,1.98.58,2.98.93-.79,2.35-1.29,1.69-2.77.89.77,4.48-1.17,5.95-1.6-.65-1-1.47-1.88-2.42-2.6-.14.46-.56.86-.68,1.34-.2-2.53-2.93-1-4.11-.53,1.32-2.53,1.97-3.67-1.17-4.04,1.96-1.69-.79-3.8-2.56-2.29.38.68.77,1.34,1.15,2.01-1.02.12-2.02-.36-2.56-1.22-.34-.56.58-2.28-.9-1.83-1.55.4-3.19-.2-4.11-1.51-1.76-1.98-2.72-3.6-5.15-4.22-1.45-.39-3.83-1.21-4.93.38,1.35.48,2.83.01,4.01.69-1.25,2.17-5.62-.96-6.95,2.5,1.08.37,2.7.17,3.56.9-1.04.23-6.01.41-4.48,2.04-.76.27-1.56.56-2.32.84,1.34.63,2.11.34,3.42.66-.21.11-.42.23-.62.35,1.25.59,2.59-.79,3.71,0-.44.1-.79.53-1.21.63.3.23.52.62.82.8-.46-.13-.94-.2-1.39-.37-1.69-.1-3.36-.18-5.02-.27l.03-.02ZM182.53,53.72c.91-1.04,3.96-1.13,5.22-.9.44,2.43-4.22,2.07-5.22.9ZM144.8,54c.31,1.17-1.25,2.42-1.89,3.25-.48.63-2.7,1.03-3.07.08-.49-1.29,4.11-3.11,4.95-3.35h0ZM464.31,156.21c-.13.07-.24.17-.38.24l.32.37c-.03-.2.25-.28.06-.6ZM175.19,70.7c1.07.3,2.02.9,2.76,1.73.96.89,1.51,1.91,2.73,1.36.96-.65,1.56-1.7,1.63-2.86-.06-1.36-.89-1.49-1.98-2.21-1.94.39-4.29-.32-5.12,1.97h-.01ZM185.03,60.17c-.73-2.03-1.72-1.76-3.32-1.2-1.9,2.67,2.36,1.64,3.32,1.2h0ZM181.88,50.83c.92-.47,2-.51,2.94-.1.63.41,1.27.8,1.9,1.21-1.05,1.11-2.7.73-4.04.63-.11-.87-.35-.82-.82-1.74h.01ZM213.59,45.28c-1.72-.07-6.99.8-7.6-1.42,2.72-1.59,5.93-1.38,8.95-.48-.46.64-.9,1.28-1.35,1.9h0ZM252.19,73.92c.59.5,1.25.9,1.97,1.18.97.59,4.08-.76,5.21-1.03,1.39-.31,3.18.13,4.6.2-1.53-2.08-3.58-3.73-5.94-4.77-.86-.46-2.12.22-3.04-.13-1.11-.39-2.21-.8-3.32-1.21-1.05.2-1.74,1.22-1.54,2.27.12.6.51,1.11,1.06,1.38,1.35.66.24,1.08.99,2.11h.02ZM220.72,44.52c-1.07.97,1.11,1.81,1.62,2.08.97.52,1.9-.07,2.91-.38-.13-2.21-3.22-2.9-4.53-1.69h0ZM222.66,49.5c.75-.58,3.08.07,1.83.94.17.22.23.76.44,1.07-.86.35-3.31-1.22-2.27-2.01h0ZM906.33,63.19c3,.23,6.02-.12,8.89-1.03.28-.66.39-1.37.3-2.08-.17-.35-1.94-.6-2.29-.69-1.72-.53-2.41-.28-4.14.27.1-.38-.04-.84.04-1.21-1.51-.07-3.03-.49-4.31.63-.1-3.04-3.62-1.13-3.22.72.2.97,3.87,2.81,4.71,3.41h.01ZM632.3,83.59c1.63,1.91,3.93,3.12,6.43,3.38,2.21.14,6.84,1.56,8.78-.06-3.08-2.12-5.61-3.94-5.71-8.29-.08-3.39,3.17-6.28,5.07-8.53,1.15-1.36,2.2-2.83,3.28-4.25.97-1.25,3.25-2.08,4.56-2.93,2.52-1.6,4.21-3.65,7.04-4.52,3.39-1.04,6.84-2.01,10.2-3.18,1.69-.58,8.49-1.79,8.77-4.83.32-3.67-6.66-2.08-7.91-1.07-2.79,2.28-5.94,2.74-9.3,3.7-2.76-.09-5.5.39-8.06,1.41-2.22.92-5.84,1.58-7.67,3.21-2.13,1.79-4.16,3.7-6.08,5.73-1.32,1.48-2.65,2.96-3.98,4.43-1.03,1.14-.45,1.9-.1,3.48.13.62-2.76,2.24-3.25,2.59-1.83,1.31-.14,1.42-1.03,3.15-.63,1.28-2.56.7-2.69,2.42-.16,2.39.1,2.45,1.66,4.14v.02ZM638.41,24.98c-3.18-1.17-3.28-.99-6,1.21,1.29.17,2.59.32,3.87.49.72-.56,1.43-1.14,2.13-1.7h0ZM650.47,17.45c-.75-.66-1.51-1.32-2.25-1.98,1.53-.38,3.05-.76,4.59-1.14-2.55-.45-3.53-1-5.67.51-1.69,1.21-3.38,2.38-5.11,3.46,1.56.2,3.12.44,4.7.65,1.25-.51,2.51-.99,3.74-1.51h0ZM650.4,89.48c.53-.34,1.08-.66,1.62-1,.59.46,5.05,2.9,3.74,4.07-1.29,1.11-4.91-1.9-5.36-3.07ZM654.46,27.33c-.62-1.32-1.94-.46-2.96-.21.42.38.88.74,1.35,1.06.55-.27,1.07-.56,1.6-.84h0ZM648.92,20.93c-1.96-.62-3.74-1.36-5.78-1.31-2.84.13-3.84-.24-5.74,2.03,1.86.49,3.73.99,5.59,1.48,2.38-.46,4.01-.65,5.94-2.21h0ZM620.7,22.65c-1.39.92-2.76,1.86-4.12,2.76,2.17.78,4.47,1.15,6.77,1.07-.21-.75-.42-1.51-.65-2.27,2.7-.65,5.42-1.3,8.12-1.91-1.48-1-2.46-1.87-4.25-1.38-1.7.44-3.32,1.18-5.04.76-3.65-.89-6.08.21-9.71,1.32,1.25.32,2.49.66,3.74.99,1.72-.44,3.45-.9,5.16-1.34h-.03ZM622.17,97.8c.93.92,3.74-1.56,4.45-2.08-.98-.98-2.25-1.63-3.62-1.84-2.14.87-2.74,2.06-.84,3.93h.01ZM544.39,90.27c2.53-.21,4.86-1.46,6.45-3.45-1.27.03-1.31,1.14-2.31,1.66-.83.45-2.41.24-3.31.34.52.8,0,1.27-.83,1.46h0ZM160.98,39.14c-.87-.51-2.28.24-3.2.46-.24-.14-.47-.3-.69-.46,1.15-1.69,4.36-1.91,6.08-2.46,1.04-.34,5.09-.42,5.47,1.18.63,2.65-4.48.72-5.35.82-1.11.14-.96,1.24-2.34.46h.02ZM650.4,23.77c.7.38,1.43.75,2.12,1.14-.9.13-1.79.27-2.7.42.3.25.42.73.7.99-1.8.32-6.83,1.91-7.56-.17s6.7-2.34,7.42-2.39h.02ZM877.72,61.78c1.01.66,2.04,1.73,3.22,1.65,2-.17,1.93-.28,2.77-2.29,1.53,2.41,3.77.39,5.97-.46.6-.24,1.36,1.91,2.04,1.79,1.1-.24,2.18-.45,3.27-.68-.38-.65-.76-1.28-1.15-1.91,1.39.59,1.89,1.1,3.17.3,1.03-.52,1.93-1.26,2.63-2.17-2.93-1.11-5.87-2.24-8.8-3.35-.76-.3-2.08-1.18-2.9-.83-1.45.65-.76,1.66-.49,3.26-2.05-.9-6.26-4.85-8.29-3.21-1.87,1.52-2.87,2-3.5,4.42-.35,1.34,1.29,2.51,2.08,3.49h-.01ZM464.35,162.85c.73-.24.84-.82.45-1.58-.37.16-.69.39-.97.68.77.17.27.52.52.9ZM889.05,71.18c1.9,1.59,3.21,1.2,5.61,1.13-.53-2.2-.7-2.27-2.51-3.35-.42-.24-3.52-1.63-3.53-1.73-.18-1.52-1.36-2.98-3.11-1.82-2.03,1.36.42,2.73,1.29,3.41-1.17.8-2.34,1.6-3.49,2.42,1.58-.17,4.45-1.14,5.74-.04l-.02-.02ZM669.16,21.21c1.76-.41,1.18-1.13,1.1-3.05-.68.07-2.22-.17-2.79.21-.52.37-.55,1.75-1.1,2.06-1.48.83-3-1.35-4.11.86.36.45.77.85,1.22,1.2,1.9-.44,3.79-.86,5.67-1.28h0ZM653.56,23.97c1.03-.03,1.62-.31,2.29.55,1.17,1.46,4.07-.65,5.11-1.8,1.24-1.36-1.48-3.35-2.82-3.01-2.08.51-4.09,1.25-6,2.22.37.99.37,2.07,1.41,2.04h0ZM767.64,40.9c1.58,2.14,5.53-.56,7.43-1.25.6-.2,1.62.99,2.51.84,1.66-.3,3.34-.59,5.01-.89,1.06-.18,2.03-.67,2.8-1.42.63-.51-.7-2.48-1.46-2.55-1.63-.17-1.93-.86-3.07-2.2-.48-.56-2.66,0-3.36.06.46-.42.94-.84,1.42-1.27-2.29-.84-3.94-.79-5.64,1.04-1.6,1.86-3,3.89-4.17,6.05-.49.52-1,1.04-1.48,1.56l.02.02ZM745.93,29.95c-.38-.27-2.55-1.62-2.39-2,.3-.66.98-3.19,1.62-3.36s3.15-.44,3.32-1.08c.49-1.89.3-2.41,1.94-2.91,1.45-.44,2.89-.89,4.35-1.34,1.28-.39-.14-1.69,2.03-1.6,1.89.08,4.84,3.28,6.43,4.42-2.49.73-2.51.42-1.98,3.22.24,1.3,2.89,1.21,3.98,1.46-.77.82-1.55,1.66-2.31,2.48,2.32-.9,3.58-1.96,5.8-.73,1.04.58,0,1.91-.38,2.94-.28.77.58,2.43.82,3.2-2.45.73-3.52,1.24-5.88.34-2.6-.99-3.94-.93-6.71-.62-2.31.24-3.18-2.21-4.63-4.1-1.13-1.48-4.38-.42-6.04-.31h.04ZM999.02,86.14c.76-.22,1.42.34,2.15.18,2.48-.49,4.43-.44,6.21-2.39-1.03-.92-1.82-2.04-3.15-2.11-1.77-.08-3.5-.15-5.25-.24-1.21-.06-3.04,1.24-4.18,1.72-.3.13.62,3.29.72,3.81,1.18-.34,2.34-.66,3.5-1v.03ZM528.95,95.16c-.98.44-2.35.52-1.96,2.01.56-.42,1.11-.89,1.66-1.34.1-.22.2-.46.3-.69h0ZM521.48,101.54c.7.19,1.42-.21,1.63-.9-.48-.51-1-.42-1.55.11-.03.24-.06.54-.08.77h0ZM525.63,96.5c1,.84,1.22,1.69,0,2.45-.62-.13-1.25-.24-1.84-.38.59-.69,1.22-1.38,1.84-2.07h0ZM473.25,147.81c.69.2.82.07,1.43-.28-.48-.04-.76-.25-1.28-.14.17-.11.31-.2.46-.3-.98-.76-1.17.28-1.21.68.14.21.3.42.42.6.06-.17.08-.37.15-.56h.02ZM548.31,88.2c-1.28.07-2.52.55-2.9-1.25.79-.16,1.61-.12,2.38.13,1.17.32.98-.24,1.93-.75-.06.92-.75,1.25-1.39,1.87h-.01ZM465.27,161.86c-.46-.99.13-1.48.72-1.31-.21.45-.45.89-.72,1.31h0ZM525.95,99.47c-1.24.04-2.41-.32-2.36,1.53.78-.5,1.58-1.01,2.36-1.53ZM467.08,162.25c0,.48.19.94.52,1.29.38-.64.17-1.14-.52-1.29h0ZM466.4,154.77c-.15.07-.31.15-.46.23.23.07.45.14.66.23-.53.54-.89,1.23-1.01,1.98-.08.37-1.01.69-1.39,1.21,1.22.25,1.25.76.06,1.01.75.73,2.7-.06,1.04-1.05,1.03.62,1.52-.32,2.31-1.04.1.13.2.27.3.41-1.15.62-1.36,1.96-1.66,3.21-.2.84.3.86-.13,1.96-.23.55-.65.82-.2,1.25.94.84.73-1.14.83-1.79.14-1,.08-2.08,1.28-2.53-1.38,1.14-.21,2.27.7.27.15.33.27.68.34,1.04-.8.06-.65.35-.46,1.15.27,1.1.45.69,0,2.03-.42,1.29-1.69,1.48-.18,2.63-.01-.31-.03-.63-.06-.96.7.27,1.83,1.17,1.41-.07,1.1.75,2.45-.72,4-.49-2.66.63-1.24,4.76.38,3.52-.73,1.03-.65,3.17.24,3.77l-.31.1c-.44-.63-.3-.24-.8-.52.06.24.11.46.17.69-.98-.18-1.83-.59-2.69.11-.15-.6-.76-.96-1.36-.81-.07.02-.14.04-.21.08,1.11.91.56,1.77-.44,2.46.65-.13,1.31-.27,1.96-.37-.2,1.31.56,1.65-.32,2.88-.46.65-2.41,1.01-3.14,1.32.13.32.17.87.13.72.86,1.48,1.97-.45,3.24.27-.15.13-.32.25-.48.37.52,0,1.87.82,2.07.73l2.83-.97c-.62.56-1.07,1.28-1.3,2.08-1.79-.24-3.67-1.04-4.28,1.28-.31,1.24-2.34,2.22-3.2,3.24,1.58,1.1,3.29-2.15,5.52-.54,1.25-3.14,1.74-.58,4.01-1.69.68-.35,2.07-1.43,2.8-1.41.97.06,1.2,1.11,2.29.86,1.86-.46,3.12-.41,5.09-1.21,2.51-1.04-1.35-1.84-2.11-1.94,1.9-1.43,3.2-2.15,3.49-4.71.3-2.66-4.18-.86-4.62-1.35,1.73-1.24-.87-3.46-2.18-3.46.74-.36,1.64-.08,2.03.65-.55-3.38-3.38-3.66-4.24-6.43-1.08-3.53-2.58-3.83-5.77-4.28.45-.69,1.28-1.03,2.08-.86-.97-2.03,3.58-4.49,2.38-6.33-.76-1.17-6.01-.58-6.6.63l-.28-.23c.38-.34.59-.94,1.03-1.24-.44-.17-.9-.32-1.36-.42.32.04.66,0,.97.03.25-1.27,2.65-1.58,2.98-3.49-1.41-.22-2.86.05-4.1.76-.61-.32.06-.42-.84.03-.24-1.31-1.35-.23-.89.84-.28.06-.58.1-.86.17-.13.34-.2.55-.27.73.37.35.68.84,1.07,1.15-.59-.42-1.36-.48-2.01-.17.27.46.3,1.11.58,1.58-.27-.06-.54-.13-.79-.17-.13.7.23.65.77.86h-.03ZM469.87,167.93c.28.58.03,1.28-.56,1.56,0,0,0,0,0,0-.17,0-.35-.03-.54-.03.05-.68.48-1.28,1.11-1.55h-.01ZM530.54,98.5c1.1-1.17,2.18-2.34,3.29-3.52-.76.63-1.53,1.28-2.28,1.91-.97,0-1.32.61-1,1.6h-.01ZM536.27,91.6c-.59.63-1.22,1.21-1.89,1.76.66.03,1.32.07,1.97.1.52-.89,1.32-1.34-.1-1.84h.02ZM532.41,93.6c.94-.3,1.58-.69,2.14.49-.67.54-3.72,3.59-3.56,1.32.1-1.52.07-1.38,1.42-1.82ZM539,90.97c-.2.6-.77,1-1.41.99-.34-.12-.67-.26-.98-.44.37-1.2,1.51-1.1,2.38-.55h.01ZM529.15,97.15c.96-.59,1.14.94.91,1.73-.75-.3-1.6.04-1.94.76-.76,1.01-1.18.62-2.34.42.7-.75.53-.42.66-1.39.25,0,.52-.03.77-.04-.31-.97.13-1.75,1.05-1.76-.14.72-.25,1.41-.38,2.14,1.03-.49.63-1.45,1.25-1.84h0ZM526.56,101.3c.03,1.38-.73,1.66-1.79,1.82.42.3.25.45.79.68-.17.37-.37.71-.6,1.04,1.17-1.2,1.86-1.65,1.6-3.52h0ZM527.87,100.85c-.33-.1-.68-.14-1.03-.14-.03.5.02,1.01.16,1.49.91-.92,1.82-1.86,2.72-2.8-.89-.07-1.48.54-1.83,1.46h-.02ZM541.1,91.43c-.82.38-1.65.8-2.48,1.18-.58.17-1.18.37-1.76.56.87-1.1,2.99-2.53,4.23-1.75h0ZM542.24,89.8c-.44-.07-.89-.05-1.32.06.1.3.18.59.3.86.76.56,1.14.14,1.03-.92h0ZM684.69,70.51c-1.82.21-1.36,1-1.55,2.91,1.6-.27,3.22-.56,4.84-.84-.38-1.45-1.82-2.35-3.29-2.07ZM854.45,250.33c.1.75.2,1.48.3,2.25,1.83.2.42-1.87,1.73-1.73,1.59.2.75,2.25.34,2.9-.84,1.32-1.01,5.64,1.28,4,1.84-1.35,2.51-3.8,3.5-5.94.24-.54-.76-1.93-.98-2.32-.63-1.08-1.22.17-2.1-1.11,1.43-1.34,3.08.72,3.81-1.91.75,1.27,1.31.75,2.27.17.46-.3,2.08-.62,2.28-.89.97-1.21,3.08-.42,4.47-.31-2.14,1.83-.83,3.1.77,4.5.86-1.21,1.63-3.38,3.32-3.05-.98-.86-1.31-1.83-.1-2.63,1.35,2.2,4.1,1.2,5.42-.68.31.6.6,1.21.91,1.82.65-1.11,1.44-2.13,2.36-3.03-.16.66-.28,1.34-.44,2.01,1.42-.49,1.66-1.69,2.86-2.35.16-.08-.25-2.96-.08-3.74.35-1.59.94-1.63.93-3.56-.03-1.21-.28-3.22,1.48-2.32,0-1.24-.34-2.12.63-2.77,1.08-.7.72-2.01.75-3.34.04-.93-1.01-2.25-1.42-3.07-.44-.84.01-1.72.21-2.65-1.51-.8-2.39.37-1.97,1.97-.91-3.42-2.98,1.05-3.32,2.36-.28,1.05.98,1.53.82,2.07-.45,1.39-.9,2.8-1.35,4.22-.55,1.93-1.81,3.58-3.53,4.62-.95.59-2,.98-3.1,1.15-1.07.03.18-1.89.52-2.18-1.51.58-2.07.38-2.11,2.14-.04.91-1.45,2.14-1.98,2.82-.67.86.31,1.63-.84,2.14-1.65.72-.93-.65-1.97-.55-1.9.21-5.45-.27-6.63,1.46-1.35,1.98-3.11,3.28-5.26,3.21.86,2.35-2.34,3.34-3.77,4.32h0ZM851.57,351.15c-1.04.77-1.97,1.67-2.79,2.67-.91,1.55-.31,1.83-.06,3.1.23,1.13.29,2.3.17,3.45-.1.7,1.65,1.69,2.14,2.12-.21-1.41-.79-4.52,1.6-3.55-.35-.3-2.76-1.91-1.56-2.22.67-.07,1.15-.67,1.08-1.34-.06-.57-.51-1.03-1.08-1.08.24-.45.5-.88.8-1.3-.03-.61-.22-1.24-.31-1.84v-.02ZM915.77,435.97c-1.69-1.53.62-3.58-2.03-4.48-.3-.1-1.66,1.73-1.97.69-.37-1.27-.76-2.5-1.14-3.74-.67-2.28-.65-3.56-2.55-4.64-.75-.44-5.95-2.77-5.95-3.59,0-2.15.58-4.6-.82-6.22-1.96-2.28-1.82-3.18-1.98-6.35-.09-1.39-1.29-2.45-2.68-2.36-.44.03-.86.17-1.23.41-.72-4.22-1.97-8.32-3.74-12.21-2.15.52-2.31,4.43-2.86,6.38-.56,2.1-.1,4.6,0,6.77.1,2.62-1.41,10.91-4.98,9.6-1.27-.45-2.36-2.7-3.69-3.5-2.39-1.42-4.78-2.83-7.16-4.26-2.21-1.31-1.27-2.08-.63-4.79.49-2.17,1.7-3.28,3.11-4.93-2.25-2.2-2.8-2.32-5.78-2.6-2.31-.33-4.64-.51-6.98-.54.07,1.08.17,2.17.25,3.27-2.59-.38-4.91-1.77-6.56.63-1.63,2.36-2.03,4.56-2.73,7.47-2.24-1.18-4.45-2.38-6.68-3.55-.82-.44-3.58,2.69-4.21,3.22-3.62,3.1-8.5,5.76-10.3,10.5-.9,2.42-.91,4.4-3.25,4.97-3.08.72-6.18,1.45-9.26,2.14-2.11.49-3.25,1.41-5.11,2.74-2.29,1.67-2.73,2.29-3.84,5.14-.39-.96-.77-1.9-1.15-2.86-1.55,3.79-2.51,6.99-.97,10.84.9,2.29.66,2.63-.13,5.02-.53,1.69.55,2.91,1.27,4.48,1.78,3.71,2.99,7.66,3.59,11.72.22,1.6,1.58,5.73,1.01,7.14-.2.51-3.65,2.46-1.96,3.76,1.38,1.1,2.97,3.05,4.73,3.05s3.84.61,5.21-.73c1.97-1.94,2.48-2.65,5.01-2.9,1.82-.18,3.62-.45,5.43-.51,1.39-.04,2.76-.07,4.14-.13.42,0,1.07-1.96,1.28-2.39.72-1.51,3.46-2.12,4.84-2.8,1.53-.75,3.7.42,5.07-.39,1.07-.65,3.21-2.63,4.43-2.48,4.29.56,8.12,1.01,12.2,2.56,2.58.98,2.76,1.46,4.21,4.08.89,1.68,1.9,3.29,3.03,4.83,2.27-2.42,4.26-5.08,5.92-7.95,1.05,3.25-1.04,5.81-2.69,8.53,2.7.61,2.59-.94,3.86-3.55.16,1.65-.3,5.69,1.38,5.69,1.49,0,2.58,3.12,2.87,4.46.97,4.64,4.31,5.9,8.22,6.52,2.53.41,2.89.73,4.88-.98,2.27-1.93,2.08-1.05,3.98,1.25.91,1.08,3.31.23,4.18-.66,2.01-2.03,2.32-2.22,5.04-2.31,4.55-.15,4.14-6.36,4.85-10.26.62-3.38,4.31-5.85,5.14-9.2.97-3.95,3.03-8.74,3.15-12.83.13-3.9-1.22-8.37-1.8-12.21-1.82-1.65-3.62-3.29-5.45-4.97h-.02ZM844,369.87c-.9,2.56,3.32,1.43,3.87,1.22.1-1.55-3.28-2.94-3.87-1.22h0ZM858.95,395.35c1.48-.39,1.11,1.05.17,1.65-.96.62-2.21.01-3.42.03.14-2.73,1.81-.7,3.25-1.68ZM921.45,374.95c.66-1.55.91-1.62.06-3.03-.14-.21-.67.17-.91-.2-.19-.41-.43-.8-.72-1.15-1.36-1.13-3.08-1.97-4.53-2.94-.55,1.79,6.16,2.66,5.43,5.94.19.48.42.93.69,1.36v.02ZM906.91,495.92c-.89.34-3.52,2.03-4.36,1.65-1.56-.69-3.12-1.38-4.66-2.08-.32,2.55-.02,5.14.89,7.54,1.21,2.83,2.58,3.45,5.12,3.93,3.11.61,6.14-10.02,3-11.03h.01ZM911.52,377.12c1.07-.04,1.77-1.7,1.96-1.28-1.27,3.07,3.83-.66,4-.63-.03-.77-.37-3.64,1.18-2.62,1.18.79,2.17,2.49.03,2.97,1.56,1.6-.96,1.42-1.17,1.86-.58,1.3-2.2,1.87-3.48,2.17-1.69.41-5.22-.54-5.97-2.35,1.11-.41,2.28-.07,3.42-.11h.03ZM900.91,376.8c1.42,1.53,6.21.37,5.87,4.04-.86.11-1.72.2-2.58.3.22.63.45,2.01,1,2.38s1.74.83,2.04,1.48c1.27,2.56,1.13,3.24,3.79,3.33-.75,1.69.83,1.51,1.93,1.77-1.14.96,1.21,2.55,1.94,3.33-.97.34-2.86-1.11-4.07-1.32-1.74-.31-3.43-.15-4.73-1.51-1.63-1.72-3.27-3.42-4.87-5.14-.83-.87-4.26-.69-5.43-.84-.94-.15-1.41,3.1-2.45,3.76-1.86,1.21-3.83.63-5.98.54-1.28-.07-2.05-3.24-3.11-3.14-2.04.23-4.05.42-6.11.62.37-3,.62-2.7,3.28-3.46-.76-1.82-1.52-3.64-2.29-5.46-.45-1.05-2.8-1.51-3.74-1.9-2.28-.96-4.52-1.93-6.8-2.89-1.93-.82-1.9-.73-2.31-3.04-.82.98-1.6,1.94-2.39,2.93-.91-1.53-1.82-3.07-2.7-4.62,2.17-.51,3.39-.93,5.47-.21.13-.44.18-.9.13-1.35-1.72.08-3.67.61-5.23-.25-.6-.32-.11-1.82-.59-1.91-.91-.13-1.83-.25-2.74-.41,1.43-2.77,4.11-3.32,6.7-2.73,1.69.42,2.2.06,2.43,1.93.21,1.61.63,3.18,1.25,4.67.56,1.51,1.25,1.56,2.66,2.24.48.21,2.21-2.65,2.6-3.15,1.07-1.43,3.66-2.63,5.25-2.04,3.29,1.25,6.57,2.52,9.88,3.77,2.03.77,4.57,1.3,6.46,2.48,1.25.79,2.53,1.6,3.8,2.41,1.29.82.69,2.42,1.63,3.43v-.03ZM890.54,182.95c-.03,2.03.22,3.88-.65,5.67-1.11,2.31-.24,2.36.24,4.71.37.96.16,2.04-.53,2.8-.39.62.17,1.65.18,2.38,0,2.28-.38,2.76.51,4.97.3-1.22.28-3.17,1.74-3.41,1.51-.25,2.21,1.59,2.12,2.84,1.41-1.48-.31-3.77-1.11-5.14-1.03-1.74-1.67-2.11-1.05-4.07.86-2.72.59-3.49,3.15-3.97,1.69-.31,1.51,2.56,3.14,2.59-1.2-2.28-2.08-4.72-2.6-7.25-.34-1.27-.66-2.53-.97-3.83-.22-.86-1.22-1.55-1.38-2.43-.46-2.79,1.72-4.17.31-6.94-.76-1.46.14-5.53-2.49-3.49,1,1,1.63,2.6.55,3.62-.45.41-.59-.48-1.42.2-.89.68-.6.82-.3,1.97.35,1.34-.46,3.59-.69,4.97-.22,1.46,2.7,2.25,1.27,3.83v-.03ZM838.56,329.28c1.32.27,2.21-1.79.49-1.97-.49.45-2.12,1.63-.49,1.97ZM836.51,329.74c-.3-1.91,1.24-4.14,1.82-5.94.16-.08.31-.17.46-.24-.21.83.11,2.51-.44,3.01-.97.8-1.63,1.92-1.84,3.17ZM841.24,323.38c-.1,1.53,1.32,3.15.58,4.26-.17-.44-.38-.83-.58-1.22.1.45.03.94.1,1.41-1.22-.69-.37-3.8-1.58-2.74-.38-.67-.55-1.44-.49-2.21.43.65,1.28.87,1.97.49h0ZM836.99,320.77c.34.7.88,1.28,1.55,1.67.11-.58.14-1.18.08-1.77-1.17.08-.9-1.3-2.46-1.18.42.75.27,1.7-.37,2.28.36-.37.77-.71,1.2-1h0ZM839.15,319.71c.03,1.13.91,1.49,1.69,2.14.86.75-.08.83.46,1.56,1.94,2.58,1.72-.87,1.41-2.49-.49-1.87-2.18-1.3-3.58-1.22h.02ZM832.25,322.16c.49-.11,1-.15,1.51-.11,1.86.72,2.39.92,3.45,2.7.44.79-.98,3.03-.97,4.18.01.8.39,2.05-.42,2.18-.87.15-.62-.83-1.34-1.17-1.84-.84.11-2.73.97-3.86-3.35,1.61-2.92-.7-3.19-3.92h0ZM824.86,363.65c-.39,1.2-.1,2-.7,3.32-.84,1.8-1.32,1.98-.22,3.59.62.89,2.15-.31,1.84,1.8-.13.87-1.1,4.22-.69,4.88.38.63,2.67.97,3.08.2.2-.34-.44-1.46-.42-1.9.01-.54.58-1.03.62-1.55.13-1.07-.13-2.46.03-3.67s-1.51-2.03.84-2.31c1.28-.14.28,2.28.45,2.84.44,1.38,2.05,1.14,1.66,2.55-.39,1.43.58,1.74,1.66,1.48-.52.13,2.36-2.27,2.01-1.48.84-1.93-1.14-.96-1.73-2.39-.16-.37.83-1.08.59-1.53-.34-.68-.72-1.35-1.07-2.03-.59-1.11-1.17-1.04-1.93-1.86,2.6.97,3.56-4.28,5.88-2.77.63-2.29-1.36-.92-2.21-.89-1.1,0-1.14.49-1.98.72-1.01.27-.49-.96-1.49.17-2.51,2.73-5.14-2.07-3.21-4.42.93-1.13,2.11.17,3.38.06,1.43-.11,3.32-.72,4.64.01,3.21,1.89,5.02-1.69,6.01-4.49-1.34.01-2.42,2.11-3.59,2.9-.65.42-1.79-.35-2.49-.39-.87-.06-.72.58-1.77.23-1.32-.45-3.73-1.87-5.02-1.04-1.69,1.1-2.08,2.05-3.03,3.95,1.2,1.74-.6,2.53-1.11,4.05l-.03-.03ZM827.9,316.77c.83,1.42,1.65,2.83,2.46,4.25,1.67-1.98,1.42-3.01-.49-4.31-.65.01-1.32.04-1.98.06h.01ZM811.79,385.35c0,1.65,1.14,3.01,2.34,1.46s-1.29-1.89-2.34-1.46ZM885.65,212.74c.87.24,1.76.48,2.65.72.38-.7.49-1.51.31-2.28-.08-.93,1.39-1.79,1.11-2.6-.22-.76-.94-5.88.75-3.57,1.34,1.84,2.29,3.6,4.22,4.59,2.73,1.39,2.83,2,5-.27.46,1.34-1.9,4,1.25,3.91-1.02,1.24-2.61,1.87-4.21,1.65-.83.16-1.58.58-2.15,1.2-.33.79-.59,1.61-.77,2.45-.94.45-3.22-1.52-3.97-2.21-.48-.48-1.74.31-2.27.56-.49.27-1.46-.69-2.39-.38-.28,1.83,1.6,1.14,2.17,2.17.49.84-.51.76-.93.63-.62-.17-1.18,1.31-1.55,1.17-.64-1.18-1.08-2.46-1.29-3.79.31-1.15.46-1.15,1.46-1.68.49-.27.49-1.66.6-2.25v-.02ZM510.55,163.2c.1.73,1.32,2.38,2.06,2.2.52-.14.83-.68.69-1.2-.1-.36-.38-.63-.75-.7-.25-1.05-1.14-.77-2-.3h0ZM581.74,241.66c-.93.42-2.32,1.45-3.32,1.37-.59-.06-2.8-.54-3.25.34-1.48,2.91,4.53,1.24,5.11,1.07-.76-1.39.6-2,1.45-2.77h.01ZM557.94,244.01c.06-1.08-2.08-1.48-3.04-1.34-1.94.28-2.46-.08-4.19-1.13-.31.45-.54.95-.68,1.48,2.55.81,5.24,1.14,7.91.97h0ZM514.42,162.64c-.25.8-.01,2.25.97,2.2,1.2-.1.97.93,1.21,2.14.21-1.38.07-2.83,1.66-2.97-.34-.23-.53-.7-.89-.93,3.96-.82-2.48-4.38-.59-.63-.84-.06-1.14-.45-.7-1.28-.32-.06-.65-.06-.97,0,.2.6-.1,1.26-.69,1.49v-.02ZM549.62,149.64c-1.97-.62-2.73-.45-4.7.14.8.61,1.09,1.68.72,2.62.84-1.49,2.63-1.89,4-2.76h-.02ZM507.12,224.6c.08.42-.69,1.25-.79,1.7-.04.23.72.62.69.86-.21,1.34-1.34,1.45-.24,2.5.86.8,1.74.91,1.86-.45.06-.79,1.22-.04,1.41-1.46.17-1.45.37-2.93.54-4.39.37-3-3.04-1.2-3.86-.66-.3-.11-.58-.21-.87-.32-.55,1.6,1.04,1.14,1.27,2.24h0ZM1026.07,124.46c-.6-.03-3.18-.61-3.6-.18-.65.59,0,1.93.45,2.31,1.59,1.27,3.76-.61,4.78.7,1.2,1.52,3.05,2.12,3.91-.39-1.66-.8-3.71-2.35-5.55-2.43h0ZM534.4,156.81c.61-.85,1.44-1.51,2.41-1.91-.94-1.07-.08-1.68.58-2.56-2.86-.69-3.14,2.21-2.98,4.48h0ZM540.33,142.63c-.04-.32-.08-.65-.14-.96h.46c-.22-1.91-2.74-.49-.31.96h-.01ZM506.97,217.54c-1.04.89.86,2.73,1.79,2.69.72-1.82.94-3.8.66-5.74-.83.17-.1.86-.58,1.49-.56.6-1.19,1.12-1.87,1.56h0ZM928.2,378.38c-.79-.41-.65-1.6-1.86-1.98-.14.82.09,1.66.62,2.29.46.55.24,1.36.53,1.72.65.77,3.25,1.53,2.41-.39-.43-.67-1.02-1.23-1.72-1.63h.01ZM866.43,249.58c-1.34.59-1.65,3.49-3.48,2.29-.83-2.76,0-2.24,1.05-4.52.73.55,5.39-2.48,5.21,1.01-.03.48-1.14,1.52-1.42,1.93-.37.48-1-.87-1.38-.72h.01ZM849.5,369.61c-1.35,1.76,1.29,1.76,2.04,1.66.53-.07.32-1.27.83-1.07.58.2,1.35.72,1.96.55,1.73-.46,2.24.23,3.74,1.25.66-3.04-2.66-3.32-4.47-3.81-1.52.27-3.1.13-4.1,1.41h0ZM979.59,498.45c-.03-1.15-.34-2.27-.9-3.27-1.35.73-1.87.75-2.22,2.34-.38,1.7-.84.93-1.72,2.14-.62.86-.51,2.35-1.08,3.27-.78.87-1.66,1.65-2.62,2.31-.78.8-1.66,1.49-2.63,2.05-.72.34-2.42.72-2.93,1.39-1.62,2.17-3.22,4.35-4.83,6.52-1.66,2.22,3.2,1.62,3.86,2.39.97,1.11,4.46,2.32,5.46.66,1.11-1.8,3.12-4.04,3.69-6.14.76-2.91,1.8-3.36,4.12-5.07.11.65.64,1.14,1.29,1.21-.89-1.8-1.01-1.97.17-3.52s2.36-3.1,3.56-4.63c-.34-1.14-.69-2.28-1.03-3.42-.73.61-1.47,1.2-2.2,1.77h0ZM964.41,518.87c2.56,1.98-.08,1.51-1.04,2.41.73-.93.14-2.08,1.04-2.41ZM993.81,484.31c2.28.3.49,3.69-.52,4.67-.3.31.42,1.52-.48,1.08-.75-.37-2.32-.24-2.28,1.07.07,2.14-1.67,4.42-2.59,6.28-1.1,2.24-2.76,1.46-4.25.52.8-.89,2.74-2.95,1.91-4.52-.25-.46-1.74-.54-2.21-.8-.72-.55-1.41-1.16-2.04-1.82,1.4-.91,2.4-2.33,2.8-3.95.56-1.51-.52-3.05.03-4.64-1.51.49-2.89-4.49-3.53-5.87-.21.17-.45.35-.67.54-.59-1.3-1.21-2.56-1.83-3.83,1.14.31,1.73,1.51,2.96,1.97,2.42.93,1.18.65,1.87,2.87.29.6.67,1.15,1.14,1.62.39.61-.14,1.56.16,2.17,1.04,2.08,2.14.75,1.97-.93,1.66.8.59,3.8,2.2,4.21,2.63.66,3.07.84,5.36-.63h0ZM489.42,227.17c.58.45,1.15.94,1.74,1.39.52-.44,1.04-.84,1.55-1.28-1.06-1.98-1.73-1-3.29-.11ZM1021.11,114.87c1.1.17,3,.94,4.05.65,1.2-.34,2.67-2.17,3.67-2.98-1.66-1.35-3.52-3.63-5.49-4.31-2.4-.84-4.93-1.23-7.47-1.13.37,1.25.7,2.49,1.07,3.73-3.03,0-2.69-.99-3.84-4.07-1.01-2.73-1.36-2.86-3.76-4.24-3.88-2.22-7.74-4.28-11.75-6.25-3.46-1.69-7.14-4.35-10.96-4.63-4.9-.38-9.75-.77-14.65-1.15.32,2.28.65,4.55.96,6.82-1.04.11-3.1.8-4.07.42-1.32-.55-2.86-2.83-3.94-3.86-1.46-1.46-1.27-1.43-2.96-.17-1.08.8-2.79.04-4.04-.17-2.99-.54-6.06-.48-9.03.17-2.96.52-5.19-.55-8.06-1.51.59-1.32.62-2.83.1-4.18-.55-1.76-1.32-1.52-2.97-2-2.73-.8-5.42-2.12-8.22-1.65-3.41.58-6.83,1.15-10.22,1.73-1.52.27-4.95-5.33-6.45-6.18-2.45-1.39-6.21-1.6-8.89-2.31-2.54-.83-5.13-1.49-7.75-1.98-3.43-.45-6.84-.9-10.27-1.34-.79-.1-2.42,2.93-2.91,3.6-.66.89,1.03,2.82,1.53,3.71-1.82.75-3.58,1.46-5.33,2.21-1.11.45-3.42-1.39-4.45-1.93-1.45-.72-3.18.37-4.64.83-2.29.73-2.65.13-4.74-1.27-2.01-1.31-1.74-1.07-3.24.92-.55.72-2.84,4.62-3.62,4.18-1.74-.99-3.46-1.97-5.21-2.98-.52-.3-.67-4.6-.65-5.36,0-.96,1.24-4.47.68-5.09-.93-1.06-2.65-3.98-3.9-4.39s-4.01.75-5.32,1.01c-1.8.2-3.61.24-5.42.13-2.58.03-2.29-.06-2.7,2.86-.2,1.43-3.31.86-4.43.93l-5.66.3c-1.22.07-3.34-1.56-4.49-2.12.9-.54,1.8-1.06,2.7-1.59-4.71-.51-9.53-1.51-14.27-1.06-3.63.34-4.34.45-7.35-1.76-2.01-1.48-4.62-.13-6.32,1.32,1.41.21,2.83.42,4.25.65l-16.55,4.69c7.95-4.89,15.9-9.78,23.85-14.68.53-.34,1.01-2.22,1.29-2.83.22-.48-1.42-2.15-1.74-2.59-1.27-1.67-4.08-2.84-5.76-4s-3.8-.73-5.73-.79c-1.27-.04-2.53-.1-3.83-.14-.6-.03-.34,2.45-.35,3.08-1.66-.11-3.29-.2-4.93-.31,1.22-1.07,2.43-2.14,3.66-3.21-2.96-.42-5.92-.86-8.89-1.27,1.86-.56,3.74-1.14,5.61-1.72-1.76-2.58-6.04-2.58-8.42-1.35-1.97,1.01-3.96,2.01-5.94,3.04-1.28.65-.58,3.21-2.14,3.81-6.71,2.56-13.48,3.42-20.52,4.7-3.72.7-8.06.82-11.62,2.15-1.72.83-3.36,1.8-4.91,2.9-2.2,1.31-1.97,1.34-2.05,4.19-.04,1.46.53,2.97-.91,3.12-2.17.21-4.34.44-6.52.66-3.84.39-7.68.77-11.53,1.18.22,1.29.45,6.38,1.62,6.57.89.15,3.32.04,3.98.68s1.01,2.8,1.36,3.73c-1.05.17-2.36.73-3.28.11-.93-.71-1.92-1.32-2.97-1.84-3.42-1.29-4.84-2.12-8.28-1.04-1.13.37-6.08,2.49-3.22,3.83,2.45,1.16,4.95,2.19,7.5,3.1-1.79-.14-8.81-.14-9.75-1.86-1.39-2.5-1.55-2.45-.22-5,.56-1.08-1.34-3.71-2.31-3.46.34.79,1.46,3.87.16,4.4-1.77.73-3.39,1.01-4.47,2.73-.83,1.29,1.59,3.62,2.35,4.77.98,1.45-.69,3.41-1.39,4.88-.55,1.18.58,3.36.9,4.59.11.42,4.6-.56,5.12-.66,2.21-.34,2.42-.32,4.28,1.01,1.41,1.01,1.2,2.7,1.46,4.47-1.17-1.34-2.34-2.69-3.49-4.03-.68-.8-3.15.55-4.03.82-4.57,1.39,1,4.71-1.15,6.9-1.94,1.96-4.87,5.6-7.47,6.44-3.29,1.08-6.07-.66-8.51-2.66,1,.13,3.6,1.01,4.42.49l5.74-3.5c1.1-.69,1.7-3.57,2.24-4.8.93-2.22-1.05-2.43-2.8-3.6-1.45-.99,1.49-9.13.6-10.98-.49-1.01-2.34-3.52-1.93-4.62.76-2.07,1.52-4.17,2.28-6.23-1.98-.2-10.41-2.21-11.09-.3-.51,1.52-1.01,4.98-2.22,5.95-1.77,1.42-3.56,2.84-5.33,4.25.82.52,3.62,1.6,3.17,2.62-.51,1.22-2.42,3.77-1.22,4.64,1.82,1.36,3.62,2.7,5.42,4.05.73.54-.18,3.63-.3,4.56-1.56-1.17-3.34-3.15-5.09-3.86-2.46-.97-4.92-1.95-7.36-2.93-3.63-1.43-8.74-2-12.29-.45,1.55,2.03,2.56,2.2,1,4.29-1.67,2.24-1.56,2.11-4.1,1.35.35-.59.7-1.2,1.05-1.82-2.29-.51-2.89-.59-5.01.42-1.84.89-3.05.59-5.09.35-1.35-.14-2.18,2.79-3.74,2.39-2.41-.61-2.39-.58-3.18-3.17-2.73,1.25-5.47,2.5-8.22,3.73-1.8.82-3.6,1.65-5.39,2.46-.65.3-2.36.68-2.83,1.28-1.01,1.34.34,2.74-1.53,3-1.52.22-3.07,1.07-4.1-.25-.94-1.24-2.55-2.24-1.69-3.71.52-.93,3.43-.63,4.43-.75-.91-1.21-1.91-3.5-3.41-3.7-1.98-.27-4-.51-5.98-.77.35.45,2.12,2.07,1.98,2.59-.35,1.51-.72,3-1.08,4.53.1-.34,1.72,2.25,1.79,2.52.34.89-.44,2.63-.65,3.57-1.63-.49-3.29-.99-4.93-1.48-.98-.31-2.51,1.28-3.32,1.83-1.55,1.04-3.1,2.08-4.66,3.14-.22.14,1.41,4.17,1.59,4.7-2.05-.72-4.12-1.42-6.21-2.15-2.53-.89-2.67-1.31-4.73.56.91,1.14,1.36,2.34,2.77,2.34,1.29,0,1.98,2.11.68,2.65-2.22.93-5.14-1.68-7.42-2.66-2-.86-1.62-5.31-1.62-7.51s-4.17-4.95-5.61-6.43c4.68,2.28,9.63,3.96,14.73,5.01,2.87.66,3.81.54,6.73-.42,1.27-.42,1.52-1.18,2.34-2.41,1.28-1.97,1.39-1.93.63-4.21-.79-2.32-3.39-3.63-5.39-4.25-2.55-.89-5-2.05-7.3-3.46-2.67-1.51-4-2.25-6.97-2.36-1.41-.04-6.66,1.13-6.21-1.9,1.04.25,2.42,1.18,2.8-.27-.68-.34-2.63-1.8-3.11-1.13-1.04,1.39-2.53.72-4.11.56-.66-.04-2.51.54-2.67.17-.6-1.46-2.04-1.01-2.72-2.27,1.34.13,3.18.72,4.49.44.59-.13,3.46-1.59,1.91-2.21-1.84-.72-3.67-1.46-5.5-2.15-1.74-.69-.51,3.28-2.65,1.65.49-.84.98-1.66,1.49-2.5-.56-.04-2.65-.51-3-.04-.79,1.07-1.6,2.17-2.43,3.24-.17-.9-.34-1.8-.53-2.72-1.14,1.43-2.7,4.45-4.47,4.8.72-2.89,1.58-3.84,3.52-5.98-1.71-.21-3.44.1-4.97.87-1.43.84-2.25,3.39-3.83,3.87-4.09,1.19-8.1,2.66-11.99,4.39-3.55,1.62-5.97,4.9-8.63,7.89-2.73,3.08-5.6,5.69-7.8,9.23-2.25,3.64-3.63,7.25-6.68,10.16-1.45,1.36-2.77,2.74-4.08,4.22-1.45,1.65-3.11,2.25-5.02,3.19-1.57.69-3.06,1.57-4.43,2.6-2.45,2.08-2.69,2.1-2.86,5.49-.2,3.96,1.34,7.78,1.48,11.75.1,3.22,5.4,3.87,7.47,2.6,1.35-.82,2.39-2.25,3.69-3.2,1.86-1.35,2.32-1.59,2.93-3.96.28.87.42,2.36,1.28,2.57,1,.21.2,1.77.41,2.66.35.97.79,1.9,1.32,2.77.3.68.04,1.76.49,2.34,1.01,1.35,3.52,3.45,2.89,5.19-.31.84.16,2.22.28,3.1.24,1.68.39,1.29,1.91,1.2.97-.07,1.6.27,1.9-.79.22-.86.18-1.91,1.03-2.07,2.15-.46,4-.46,5.07-2.96.79-1.82.7-4.73,1-6.7.35-2.46,1.76-3.07,3.55-4.63,1.04-.9,3.45-2.11,2.8-3.53-.9-2-3.79-1.94-4.8-3.67-2.34-4.04,1.32-8.42,3.49-11.13.73-.94,9.39-5.4,8.37-7.25-1.14-2.01-.41-3.28,1-4.87,2.22-2.49,2.51-2.38,5.7-2.25,2.19-.1,4.15,1.36,4.67,3.49.53,1.86-.91.96-1.82,1.39-.98.49-2.11,2.63-2.84,3.52-1.43,1.79-3.45,2.87-4.94,4.57-.59.7-2.48,2.14-2.66,3.04-.21,1,.82,3.25,1.05,4.22.32,1.15.34,2.37.06,3.53-.32,2.12-.49,1.97,1.35,2.7,1.19.36,2.16,1.22,2.67,2.35.3.49,2.24-.21,2.72-.31,4.7-.9,9.4-2.01,14-2.9-.25.32-.25.9-.48,1.25,1.31.55,4.35,1.1,4.81,2.62-.8-.11-2.41-.77-3.11-.32-1.01.63-2.28.3-3.15.84-1.35.86.58,1.69-1.69,1.41-1.63-.21-3.28-.42-4.94-.62-2.21-.28-4.69,1-6.68,1.87-.32.13.28,2.53.59,2.9.39.48.82.94,1.27,1.37.22.17.83-.59,1.15-.32.17.13-.39,2.83-.27,3.5.17,1.04-.68,2.73-1.84,2.65-2.12-.14-2.82-4.88-5.69-2.73-1.13.83-.58,2.14-1.27,2.96-.72.83-1.07,1.91-.97,3,.08,1.45,2.01,7.39-1.21,5.81.55-.51.98-1.13,1.27-1.82-.46.76-1.34,1.07-1.98,1.66-.24.21-.77.03-1,.25-.25.25-.41,1.37-.79,1.82-.97,1.17-3.58.9-3.62-1.01.35.2,1.05.42,1.22.54-1.87-1.6-5.97-.46-7.37,1.39-.86,1.14-5.26,1.24-6.5,2.03.56.04,1.13.11,1.7.17,0,.38-.07.76-.2,1.11-1-.56-2.04-.82-2.39-2-.57-.89-1.49-1.49-2.53-1.66-1.74.21-3.48,3.1-5.52,1.91.28-.59.56-1.2.83-1.8-2.07.99-4.15-.91-4.52-3.15-.49-3.05,2.21-3.8,3.64-6.09-2.45-.6-1.87-4.12-.73-5.77-1.62.83-3.01,2.63-4.7,2.69-2.21.1-2.62,2.45-2.53,4.57.06,1.27-.15,1.79.76,2.53,1.14.94.32,1.68.75,3.04.41,1.28,1.51,1.21.25,2.18-.76.59.79,1.9,1.34,2.11-1.03.13-2.25-.25-1.97,1.21-.78-.19-1.59-.28-2.39-.27-.51.07-1.01.17-1.52.23-.45.08-.2.96-.46,1.05-1.83.58-3.36-.49-4.93,1.37-.46.55-1.69.39-1.86,1.13-.18,1.27-.68,2.47-1.46,3.48-.27.34-.04.99-.28,1.24-.13.13-1.48.27-1.46.39.03.62,1.46.79,1.98.96-1.24-.24-2.52-.08-3.66.45-.77.37-3.45.99-3.83,1.59-.84,1.38.97,2.51-.76,3.35-1.21.58-2.77.97-3.59,2.14.37.04.73.34,1.11.35-1.22.6-2.6.79-3.94.54-.83-.1-.72-.17-1.01-1.07-.23-.68-1.32-.46-1.91-.52.55,1.1.93,2.27,1.14,3.48.13.77-2.67,1.24-3.2,1.35-1.46.37-.17-2.48-2.42-.89-1.08.77-2.43.56-3.71.66,0,.79.48,1.51,1.22,1.79-.31.03-.62.25-.93.3.32.69,1.09,1.06,1.83.89,1.11-.06,1.45.39,2.35,1.1.21.15,1.49.21,2.01.46.46.2.03.89,1.15.62-.27.66-.1,2.84,1.13,3.22,2.1.65,1.7,1.37,1.73,3.6.01,2.35.39,8.11-2.55,8.74-1.39.16-2.81,0-4.14-.44-1.52-.56-2.91.3-4.59-.24-2.15-.69-2.94-.56-5.15-.01-1.55.39-2.39-1.8-4.18-.18.12.19.23.39.32.6-.68.1-2.6.11-2.98,1.01-.42.99.27,2.56,1.3,1.73-.32,1.72-.68,3.62.04,5.29.76,1.79-.61,4.69-1.05,6.54-.45,1.93-1.28,2.34-.15,4.04.24.37.86-.45.93.23.06.62.1,1.24.14,1.84.01,1.11-.13,2.21-.42,3.28,1.32-1,2.41.27,3.88-.58,1.84-1.07,2.55,1.42,4.01.72-1.48,1.05.66,3.73,1.87,3.32,1.32-.42,2.31-2.49,4-2.41,1.89.13,3.78.13,5.67,0,.59-.06,1.3-1.74,1.63-2.28.37-.6,1.89-.66,2.53-.83-.54-1.11,1.27-2.59,1.93-3.52,1.11-1.46-1.2-2.31-.66-3.2,1.79-3.07,2.69-5.45,5.66-6.99,1-.51,3.48-1.17,4.17-2.11.69-.99-.39-3.77-.03-4.1.69-.65,2.14-2.62,3.08-2.32,1.83.59,3.64,1.21,5.46,1.8.7.23,6.21-3.81,6.76-4.49.76-.96,2.07-.54,3.12.03,2.04,1.05,2.04,1.21,2.6,3.63.59,2.57,3.2,3.52,5.12,5.39,1.07,1.07,1.91,2.56,3.42,2.35.83-.1,2.91,1.45,2.74,2.41.51-.35,1.2-.22,1.55.28.17.25.23.55.18.84-.14.9,1.25.94,1.83,1,.48.07,2.12,4.4,1.45,4.74-.97.52-.17,1.15-1.07,1.76-.87.59-2.62.6-3.62.83-.87.2-4.66-.14-5.04-.59-2.73,3.03,4.24,2.77,4.87,4.87.34,1.14,3.24.68,2.52-.75-.79-1.39-.34-3.16,1.01-4.01-.07,2.32,2.8-.18,2.6-1.62-.13-1,3.45-1.46,1.32-3.11-.75-.58-1.42-.51-1.2-1.56.1-.89.57-1.71,1.28-2.25.86-.82,2.97,2.08,3.72,2.46,1.86-2.48-5.46-5.53-6.9-6.71,1.59-1.28-.2-1.24-1.21-1.28-1.58-.07-2.21-.96-3.46-2.04-1.03-.91-.9-2.65-1.69-3.74-.77-1.05-2.46-1.84-3.49-2.62-1.24-.96.13-2.6-.25-3.29-1.1-2-.08-2.17,1.69-2.66,1.77-.46,1.45-.87,1.74.75.31,1.65,1.22,2.82,1.98.49,1.69,1.32,1.89,1.9,2.53,4.08.24.76,1.86,2.88,2.56,3,2.76.37,5.33,2.83,7.56,4.6,1.69,1.35,2.43,1.35,2.24,3.59-.22,2.43-.89,3.55.91,5.04,1.01.83,1.58,2.79,2.35,3.94,1.36,2.05,1.36,2.34,3.65,2.34-2.45,1.98-1.8,2.27-.86,5.43.89-.73,1.41-1.04,1.89,0,.52,1.22,1.43,1.03,2.63,1.25-.42-1.29-.97-1.79.1-2.6.98-.79.87-1.66-.52-1.94,1.13-1.41,1.87-.39,2.94.44.39-2.6-1.59-3.04-3.38-4.29,1.36-1.41,1.32-1.22.35-2.96-.63-1.13-1.84-2.28-.75-3.49,1.01.7,1.83,1.59,3,.62.32-.25-.49-1.35.1-1.56.62-.24,1.46-.79,2.12-.62,1.32.37,2.18,0,3.67.56.94.38,1.91.38,2.73.73-1.05.63-1.94.93-1.79,2.49,1.42-1.32,2.84-2.66,4.26-3.97.96-.91,3.6.94,4.08-.52.16-.51-2.74-1.84-3.29-2.93-.86-1.68-1.29-3.79.52-4.97,1.84-1.21,1.73-2.88,2.2-5.15.14-.73,1.77-.68,2.18-1.25.39-.62.35-2.28.48-3.05.2-1.28,2.59-3.12,3.42-4.07.73-.84,3.91.59,5.16-.03-.6,1.29-2.07.68-3.22.6.56.39,1.46,1.41,2.11,1.37.93-.15,1.89-.14,2.82.03,2.83.96-1.34,2.48-2.41,3.04,2.18,1.04,3.39.72,2.46,3.35,1.56,1.25,4.35-1.25,5.78-2.03,1.36-.73,2.8.93,4.04-1.31-1.76,0-3.45.66-4.53-.63-.86-1.01-1.83-3.69.3-3.42-.13.25-.25.52-.37.79,1.2-1.26,2.77-2.09,4.49-2.36v.62c1.32-1.74,3.35-1.79,5.21-2.1.52-.08,2.34-.65,1.94.6-.32,1.05-2.56-.21-2.03,1.51-.75.03-1.52.04-2.27.07.45.99,1.59,1.63,2.43,2.32-1.77-.04-3.31.7-2.62,3.11-.75-.14-1.49-.3-2.25-.45,0,0-.56.76-.65.91.79.59,1.55,1.24,2.36,1.79.65.45,1.33.86,2.04,1.22,2.01.24,3.24,2.07,4.73,3.48,1.41,1.34,3.03,1.62,4.33,3.08.91,1.04,1.74,3.62.27,4.55-1.76,1.13-3.22,1.9-5.28,1.66-1.83-.23-2.98.86-4.78.13-1.07-.45-4.43-.96-4.88-1.59-1.24-1.73-.77-.1-2-.72-.77-.38-1.49-1.01-1.08-1.74-1.72.59-3.35.3-5.14.15-1.36-.1-2.98,1.07-4.1,1.8-1.76,1.17-1.89,1.79-4.1,1.48-1.2-.17-3.84-.7-4.29.54.72.38,1.45.75,2.17,1.11-2.34,1.31-3.67,1.34-6.32,1.42-1.38.04-4.66.73-4.34,3.26.76-.1,1.53-.17,2.28-.27-2.29,2.56,1.38,8.71,3.49,9.92,1.14.68,3.49,2.63,4.9,2.36,1.46-.27,1.46-.2,1.96-1.69.44-1.27,1.38-.59,2.51-.39,1.69.3,2.49,2.31,4.35,2.24.8-.04,2.25.2,2.98-.14.77-.37,1.46-2.11,2.29-2.25.62-.14,1.43,1.14,2.03.63.46-.39,1.32-1.43,1.91-.77.52.58-1.69,3.76-.69,5.25,1.59,2.34-2.48,9.49-3.29,11.79-1.34,3.7-5.87,4.15-8.77,2.73-2.43-1.2-2.69-.82-5.15.39-2.27,1.1-2.56,1.1-4.93.41-2.15-.63-4.29-1.27-6.43-1.9-.48-.15-1.52,1.1-1.8.54-.55-1.1-.59-1.6-1.67-1.83-1.34-.28-2.69-.55-4.03-.83-.83-.15-.24-1.49-.89-1.66-2.89-.77-4.31-.32-7.19.49-.59.17-1.27,2.03-1.6,2.6-.39.72.86,1.89.48,2.66-1.67,3.28-3.04,2.83-5.63,1-1.83-1.3-3.72-.97-5.69-1.82-2.27-.98-1.63-3.52-3.91-4.11-2.96-.79-5.94-1.58-8.89-2.36-1.74-.45-3.42-2.72-4.8-3.96.84-.93,3.43-2.79,2.76-4.01-1.43-2.67-1.17-2.79.1-5.59-1.72-.72-3.27-2.05-4.93-1.04-2.05,1.22-3.67.83-6.04.69-.81-.13-1.62-.17-2.43-.13-.87.15-1.72,1.2-2.6,1.22-.92-.14-1.82-.44-2.65-.87-.9-.27-2.38.25-3.32.35-3.72.6-7.34,1.72-10.75,3.34-1.76.93-3.48,1.94-5.14,3.04-.38.23-1.97-.96-2.36-1.18-.75-.38-2.52.39-3.29.56-1.74.37-3.29-2.53-3.86-2.38-2.14.62-2.53,3.59-3.39,5.73-1.22,3.07-7.49,3.65-7.96,6.8-.39,2.66-.82,5.35-1.21,7.99-.32,2.14-1.11,2.17-2.84,3.27-3.35,2.14-5.7,3.17-7.67,6.71-2.8,5.05-5.57,10.1-8.37,15.14-.48.86-1.72,2.34-1.86,3.33-.21,1.66,1.01,4.56,1.36,6.18.55,2.42,1.08,4.8,1.62,7.22.32,1.48-1.18,3.93-1.67,5.26-.28.77-1.82,3.59-1.39,4.35l2.79,4.86c2.9,5.04,5.8,10.06,8.7,15.13,1.79,3.1,3.2,4.08,6.08,6.15,2.27,1.63,4.55,3.28,6.83,4.91.92.66,2.18,2.2,3.31,1.79,2.36-.83,4.74-1.69,7.12-2.51,1.86-.65,3.1-.07,5.04.44,1.87.49,2.62.94,4.31.07,2.17-1.11,4.33-2.21,6.5-3.31,1.15-.59,10.3-2.04,10.95-1.24,1.51,1.84,3,3.69,4.5,5.53,1.05,1.3,4.01.35,5.49.3,2.55-.15,2.46.03,4.1,2.29,1.42,1.96,1.3,2.1,1,4.56-.34,2.87-.67,5.74-1,8.6-.17,1.41-.77,2.89.07,4,1.56,2.1,3.11,4.19,4.7,6.3.82,1.08,2.66,2.74,3,4.14,1.07,4.6,2.14,9.2,3.22,13.81.98,4.25,2.41,7.53.08,11.64-2.39,4.26-2.51,8.92-3.24,13.86-.16,1.03-.82,2.89-.34,3.88,1.1,2.24,2.2,4.49,3.32,6.76,1.7,3.45,3.65,6.5,4.24,10.37.45,2.89.87,5.76,1.32,8.65.16,1.04.14,4.55.89,5.28,1.1,1.08,2.96,2.25,3.56,3.76,1,2.52,2.03,5.05,3.04,7.57.45,1.15,1.93,3.48,1.79,4.77-.35,3.39-.44,3.36,1.93,5.49.69.66,2.63,3.18,3.6,3,2-.42,4.01-.84,6-1.25,4.35-.9,8.69-1.81,13.02-2.73,1.2-.24,3-2.55,3.94-3.35,1.74-1.35,3.41-2.79,5-4.32,2.82-3.07,5.07-7.15,7.5-10.61.76-1.08.51-4.76.63-6.09.24-2.53-.21-3.48,1.86-4.46,1.24-.59,4.91-1.51,5.66-2.72.87-1.36.59-5.22.77-6.92.16-1.41-1.83-4.42-2.39-5.73-.82-1.94.75-2.66,2.04-4.14,1.46-1.72,2.93-3.41,4.38-5.11,1.13-1.31,4.14-2,5.61-2.72,2.69-1.3,5.35-5.15,5.19-8.47-.21-4.48.68-10.02-1.96-13.58-1.7-2.29-1.86-2.52-1.7-5.46.2-3.27.18-3.76-1.58-6.38-1.01-1.52,5.26-10.08,6.25-11.74,4.39-7.56,11.24-13.24,17.11-19.41,2.22-2.34,3.52-5.49,5.09-8.4,1.83-3.39,4.64-7.07,5.52-10.95.22-1,1.93-5.66,1.46-6.46-.75-1.31-3.34-.21-4.24.01-4.85,1.28-9.7,2.6-14.55,3.9-1.42.37-3.35-3.29-5.12-3.83,2.63-2.53-.77-4.7-2.46-6.64-1-1.18-2.03-2.36-3.03-3.55-.66-.77-3.28-.62-3.62-1.55-1-2.7-1.69-6.38-3.21-8.74-.76-1.21-2.31-2.24-3.34-3.22-.82-.79-.72-2.89-.89-3.98-.3-1.89-.59-3.74-.87-5.63-.17-1.08-1.9-2.31-2.59-3.03-1.6-1.74-1.22-4.22-2.31-6.45-1.82-3.7-3.65-7.4-5.43-11.12-.9-1.8-3.67-5.14-2.11-7.12,1.2,2.7,2.84,5.18,4.84,7.35.65-1.96,1.29-3.9,1.93-5.85-.22,1.65-.45,3.28-.66,4.91,1.74-.45,2.31,1.83,3.04,3.14,1.49,2.69,2.96,5.32,4.43,7.96.7,1.25,2.01,1.8,2.58,2.93.93,1.89,2.29,3.8,2.66,5.94.25,1.41.24,5.43,1.56,5.92,2.29.86,2.5,1.27,3.83,3.49,2.24,3.74,4.33,6.61,5.16,10.98.52,2.8,1.04,5.59,1.56,8.39.51,2.76.73,2.17,3.42,2.17,1.72,0,2.04-1.8,3.6-2.2,2.11-.58,4.24-1.27,6.38-1.67,1.03-.2,1.79-.07,2.39-1.01.46-.73.59-1.11,1.34-1.38,2.48-.9,4.97-1.79,7.45-2.67,1.39-.49,1.18-2.52,2.69-3.2,1.08-.46,2.18-.96,3.28-1.43.73-.31,1.86.59,2.55.27.86-.42.83-2.93,1.72-3.33,1.49-.7,2.98-1.42,4.49-2.14,1.46-.7,2.1-.52,2.1-2.27.01-1.65.45-3.28,1.27-4.71.06.46.41.9.48,1.38.93-1.11,4-3.63,4.07-5.09.1-1.46.69-2.48-.75-2.72-.82-.14-1.46-2.18-1.87-2.93-.53-1.03-1.66-.66-2.6-1.08-1.07-.61-2.09-1.31-3.04-2.1-1.65-1.13-1.17-4.4-1.32-6.43-1.7,1.96-3.66,5.29-5.8,6.61s-6.08.92-8.42,1.05c-.08-2.79.2-5.18-1.15-7.56-.27,1.6-.51,3.2-.77,4.8-1.84-3.53-3.59-7.15-5.64-10.57-.59-.96-3.29-4.25-2.53-5.19,2.25-2.66,2.24-2.79,5.52-2.31,1.89.28,2.22,2.62,3.07,4.4,1.24,2.7,1.52,3,4.05,4.21,1.42.66,2.41,2.58,3.94,2.82,2.52.41,3.96.75,6.32-.14,2.83-1.04,2.49-.23,3.93,2.63.8,1.59,2.6,1.42,4.18,1.77,3.56.82,7.23,2.25,10.88,1.82,1.63-.2,11.47-2.38,12.1-.98.59,1.27,1.36,4.32,2.53,4.98,1.72.98,3.83,2.8,5.7,3.25.78.04,1.56-.03,2.32-.2-.21,1.8-2.96,1.62-4.25,1.91,1.28,1.36,3.38,4.86,5.18,4.93,1.63.07,1.74.25,2.72-1.11.98-1.34,1.94-2.69,2.93-4.02.14,4.62.3,9.25.44,13.88-.09,1.62-.04,3.25.16,4.87.45,2.04,1.84,4.22,2.69,6.11,3.2,7.23,6.3,14.41,9.99,21.38,1.32-.86,2.66-1.76,3.98-2.6,1.22-.82.96-2.39,1.13-3.91,1.45,1.55,2.24,1.87,2.15,4.04-.09,2.16-.02,4.33.2,6.49.45,5.02,6.77,1.77,5.18-1.94-.68-1.99-1.67-3.85-2.94-5.52-1.65-1.93-1.96-3.03-2.6-5.61-.42-1.62.84-4.14,1.28-5.71.46-1.69-.06-4.31-.1-6.05-.03-2.07-.68-3.36,1.07-4.21,1.34-.68,3.59-1.21,4.69-2.34,3.25-3.35,6.52-6.71,9.77-10.05,1.15-1.18,2.31-2.36,3.43-3.55.42-.45-.27-2.03.13-2.49.22-.27,1.7-.24,2-.27,2.35-.32,4.69-.65,7.02-.97,1.32-.18,2.91-1.9,4.03-2.69,1.17,2.69,1.91,5.77,4.14,7.56,2.53,2.03,3.28,4.77,4.62,7.89.38.87-.42,3.36-.53,4.31-.32,2.21-.48,2.03,1.53,2.49,1.93.44,1.8.48,3.08-1.08,1-1.24,2.01-2.48,3.01-3.69,1.52,4.8,3.11,9.09,3.45,14.16.17,2.53.75,5.45.52,7.98-.14,1.39-1.32,6.32-.48,7.25,1.89,2.01,3.76,4,5.64,6.02,1.28,1.35,1.83,5.49,2.42,7.3.86,2.63.98,3.55,3,5.14,2.18,1.69,3.79,3.38,6.43,3.83-.83-1.73-1.54-3.51-2.14-5.33-.42-1.89.31-4.42-.38-6.19-.86-1.5-2-2.8-3.38-3.84-1.17-.89-4.11-2.28-4.56-3.79-.27-.9-1.24-5.91-2.01-5.87-1.51.08-1.51.35-1.66-1.3-.19-.85-.2-1.73-.03-2.59.7-1.9,1.72-3.79,1.87-5.83.27-3.39-.31-3.81,2.82-3.95-.1.76-.2,1.56-.3,2.34,3.21.14,5.04,1.56,7.4,4.1,1.31,1.42,2.63,2.83,3.94,4.26.98,1.04-.91,3.12.44,4.53,4.09-3.1,8-6.42,11.74-9.94,1.35-1.27.34-5.55.27-7.37-.13-2.97-1.14-3.74-2.94-6.08-1.43-1.87-2.98-3.64-4.24-5.66-.87-1.41-1.76-2.8-2.63-4.21-.31-.51.86-3.04,1.03-3.64.6-1.93,4.14-3.69,5.6-4.86,1.72-1.39,4.5-.48,6.05.73-.51.11-.94.51-1.45.62.2.52.65,2.56,1.07,2.77,1.53.82,1.52-.98,1.34-1.86-.25-1.35-.52-1.35.62-1.76,1.36-.51,2.74-1.01,4.12-1.51,4.47-1.62,8.85-3.46,13.26-5.29,4.1-1.72,6.28-5.73,9.12-9.33,2.66-3.36,4.45-8.25,6.53-12.09-1.67-.49-3.36-1-5.04-1.48,1.35-.98,2.73-1.94,4.05-2.89-1.83-1.35-3.66-2.69-5.5-4.05,1.74.32,3.48.63,5.21.96-1.04-2.34-2.11-4.64-3.2-6.98-.84-1.83-2.6-2.86-4.05-4.1,3.36-2.86,6.7-5.7,10.06-8.53-3.05-.8-5.32-2.03-8.22-.59-2.01,1.01-1.86,1.28-3.14-.73-.94-1.35-1.99-2.62-3.14-3.79-.83-.93,2.15-2,2.45-2.1,1.49-.54,2.84-1.4,3.97-2.51,1.01-.95,2.13-1.76,3.35-2.42,1.91-.91,1.96-.52,3.67.83-1.6,1.69-4.19,3.73-3.1,6.5,1.39-.83,2.79-1.68,4.17-2.51.98-.59,3.03-2.46,4.17-2.51,1.25.53,2.41,1.25,3.43,2.14-.34,1.1-1.74,3.8-1.51,4.9.45,2.12,2.65,1.21,4.03,1.05,1.46-.14,2.01,1.53.98,2.73-1.62,1.91.3,1.77,0,3.9-.25,1.83-.49,3.67-.76,5.52,2.48.07,3.72.14,5.9-1,2.66-1.39,2.27-2.12,2.7-5.38.67-4.84-2.22-7.94-5.5-10.78,2.96-2.88,6.18-5.07,7.57-9.18.87-2.63.9-3.25,3.1-4.53.44-.27,2.07-1.62,2.58-1.52.65.14,1.28,2.17,1.97,2,1.38-.32,3.6-.32,4.69-1.39,1.96-1.93,3.91-3.87,5.85-5.8,2.89-2.84,4.73-6.23,6.94-9.72,2.36-3.77,3.91-6.15,4.91-10.5,1.04-4.6,2.1-9.2,2.91-13.85.35-1.96-6.7-7.74-7.95-5.28-1.45,2.88-1.67,2.42-4.66,2.18-.46-.04-.98-2.2-1.14-2.66-.56-1.48-.69-1.22-2.15-1.37-1.14-.1-2.03.03-2.56-1.32,3.96-2.84,7.77-5.4,11.2-8.95,3.67-3.83,7.47-7.42,11.34-11.01,1.11-1.05,5.26-.39,6.7-.45,2.22-.13,4.45-.02,6.64.32.87.14,1.86.59,2.65.11.63-.37,2.35-1.9,3.03-1.74,2.49.48,4.97.97,7.46,1.48-.93.66-1.87,1.34-2.79,2.01,2.6-.31,5.22-.63,7.84-.94.52-.07,3.05-.24,3.27-.66.56-1.01-1.28-1.91-2.04-2.56,2.29-2.79,4.82-5.38,7.56-7.73,1.77-1.43,2.34-1.31,4.59-1.27,2.21.04,3-.38,4.98-1.56-.56,2.88-.82,3.93.18,6.6,2.08-1.72,5.21-3.42,6.68-5.81.73-1.17,1.45-3.26,2.77-3.42,1.53-.18,3.08-.04,4.56.39-.46.1-2.93.32-3.03.73-.42,1.79-.86,3.57-1.29,5.38-.58,2.39-3,3.12-4.8,4.48-2.6,1.96-4.59,3.21-6.25,6.09-1.79,3.08-3.58,3.55-6.67,5.05-10.75,5.26-4.25,22.36-2.34,31.34,1.55-1.91,4.76-4.55,5.15-7.08.39-2.62.52-2.34,2.86-2.94,1.86-.49,1.32-2.15,1.46-4.14.14-1.69,1.39-1.52,2.8-2.01.63-.23,3.15-1.21,2.89-1.83-1.56-3.81,1.04-5.11,3.97-6.38-1.73-2.36-1.59-2.46-.83-5.38.31-1.22-3.2-1.65-4.19-1.97,1.86-3,3.72-6.01,5.59-9.01.83-1.34,2.11-.58,3.49-.38,1.08.14,2.96-1.29,3.94-1.79.04,1.03.07,2.07.1,3.1,1.98-2.9,2.18-3.1,5.42-3.52,3.43-.45,3.58-.14,6.18,2.45,1.39-3.39,4.55-4.35,7.47-6.14,3.74-2.28,7.49-4.56,11.24-6.84.9-.54,3.18.45,4.17.65.55.1,2.01.72,2.53.49.28-.1,1.42-1.63,1.27-1.82-1.42-2.04-2.39-3.04-2.53-5.57-.13-2.17-1.97-2.67-3.55-3.79,1.84-.49,8.64-1.13,8.74-3.26.07-1.36-.45-4.81.93-5.05,2.66-.44.59,3.22,1.82,3.32l6.11.42c1.87.14,1.6,1.93,2.08,3.81.32,1.29,2.67-.08,3.72.7,1.28,1.13,2.91,1.79,4.62,1.86-.3-1.2-1.29-2.96-.13-3.5,1.59-.73,1.22-1.34,1.28-3.21l.19-.15ZM637.86,220.21c.84.79,2.04,1.29,1.72,2.65-.87.41-5.61-.11-5.53-.31-.45.97-.97,1.98-.14,3.01.31.37,1.36-.06,1.67.28.3.58.49,1.21.58,1.86-.39,0-.77-.04-1.15-.08,1.21,2.18,2.59.77,2,3.84-.39,2,.04,3.94.25,5.98-1.67.21-4.45,1.24-6.05.73-1.24-.37-2.51-.76-3.74-1.17-1.03-.31-1.08-1.27-2.36-1.58-1.48-.35-1.91-.04-2.05-1.68-.26-1.24-.18-2.53.22-3.73.47-1.1.87-2.23,1.18-3.38.45-1.87.79-1.69,2.49-2.21-2.05-1-2.45-1.69-3.69-3.81-.75-1.29-2.31-1.74-2.94-3.14-.95-1.76-1.4-3.75-1.31-5.76-.09-1.61-1.4-2.88-3.01-2.93.58-.62,1.93-1.56,2.11-2.43.38-1.9.27-1.97,1.89-2.65.68-.31,3.29-.9,3.49-1.72.68-2.88.52-1.66,2.83-2.08.9-.17,2.41-1.63,3.28-1.28,1.18.46,2.53,1.59,3.43.49.84-1,1.9,1.48,2.17,1.97.62,1.15-.18,2.55-.55,3.77,2.36.75,2.98-1.11,3.87,1.7-1.79.23-2.2,1.14-3.22,2.63,0-1.33.78-2.53,2-3.05-1.42-.66-4.04-.58-5.71-.86-.87-.08-1.72.27-2.28.93-.8,1.2.14,1.37,1.1,2.27-1.45,1.07-1.83-.63-3.24-.3-1.46.35,1.84,1.63,1.84,1.72.16.91.13,3.42.68,4.12.7.86,2.9,1.31,3.87,1.77-1.13,2.49-.84,3.45.52,5.74.03-1.37.39-5.07,2.77-3.62.53.34.52,1.79,1.04,2.25l-.02.03ZM152.7,49.62c.79-.93,1.96-.66,3.03-.72.33.23.64.49.91.79-1.18.89-2.67.15-3.94-.07h0ZM257.65,301.16c.97.78,2.09,1.36,3.28,1.73.65.18,1.46-.92,2.69-.51-.2-.37-.43-.72-.69-1.05-1.48-.49-4.07-1.96-5.26-.15h-.01ZM247.56,204.24c-.13.14-.27.27-.39.41l.28.2c.49-.59.72-.86.49-1.51-.1.14-.23.3-.32.44-.17-.64-.83-1.02-1.47-.85-.13.03-.25.09-.36.16-.99.41-1.35-.54-2.35.21.27.06.54.13.8.18.96.41,2.39,1.37,3.34.76h-.01ZM241.83,201.98c-.6-.42-.7-.17-.87-.04.2.21.39.41.59.63.1-.2.17-.38.28-.59h0ZM243.2,203.34c-.51,0-1.01-.11-1.46-.34.2-.17.38-.34.58-.51.35.2.59.31.86.46,0,.13.01.26.04.38h-.01ZM322.22,182.57c.38-.84.79-1.66,1.15-2.49-2.38-.97-4.95,2.27-5.84,4.39-1.18,2.99-3,5.68-5.35,7.88-.51,1.15-.63,2.43-.35,3.66.59.93,2.66.66,3.49.56,2.73-.48,5.55-.1,8.05,1.1-.9.19-1.51,1.04-1.41,1.96,2.39-.49,2.89-2.15,5.39-2.32-.34,1.84-.61,1.87,1.03,2.51,1.34.52,1.56.55,2.36-.66.9-1.35-.13-4.49-.45-5.95-.23-.96-1.9-1.37-1.82-1.91.23-1.62,0-1.65-1.03-2.86-.8-.93-4.18.3-5.17.58-.07-.63.1-1.96-.46-2.21-.44-.21-1.43-.38-1.45-.96-.03-1.89.54-2.04,1.84-3.25v-.02ZM289.73,301.78c.68,1.67,3.56.32,4.24-.7-.14-.18-.3-.34-.46-.49-1.31-.1-4.73-1.2-3.77,1.21v-.02ZM265.92,295.88c1.18-.31,2.34-.68,3.5-1.03-.76-.79-1.72-1.36-2.77-1.65-.83-.14-1.28-1.41-1.66-1.38-1.85.02-3.6-.83-4.73-2.29-.08.14-.15.29-.21.44-3.42-2.28-7.15-4.36-11.09-4.74-2.19-.12-4.39.17-6.47.86-1.86.46-2.35,2.27-3.86,3.2,2.96,1.56,6.35-5.11,9.29-2.14-.44.31-.98.42-1.51.3.49.67,1.33.98,2.14.79.93-.3,1.01.44,2,.46,1.62.06,3.14,1.21,4.87,1.45,1.62.23,1.66,2.11,3.43,2.94.46.21,2.21-.24,2.2.97,0,.39-1.48,1.51-1.76,1.82,2.18.39,4.4-.15,6.64.04v-.03ZM298.46,198.71c-1.39,2.59,1.01,3.01,2.76,3.81s2.21-.2,3.42-1.53c-1.8-.14-3.6-.28-5.4-.44-.27-.59-.52-1.22-.79-1.84h0ZM297.36,187.28c1.79,1.43,5.87,4.85,8.13,3.04-2.13-2.17-5.11-3.28-8.13-3.04h0ZM381.42,381.12c.87,3.79.96,3.73-1.13,6.74-2.53,3.69-5.09,7.37-7.66,11.06-1.18,1.76-2.65,3.08-2.8,5.26-.39,5.43-.79,10.88-1.17,16.3-.25,3.6-3.98,7.29-5.84,10.15-.82,1.22-1.49,3.29-2.95,3.38-1.42.1-4.66-.41-5.85.42-3.58,2.46-7.16,4.94-10.74,7.39-.7.51-.69,5.85-.8,6.81-.13,1.13.06,3.08-.66,4-2.97,3.83-5.94,7.65-8.91,11.45-2.72,3.5-5.44,7-8.16,10.5-.63.79-9.19-2.9-10.51-3.32-.77,2.94,4.12,3.25,4.63,5.8.25,1.25,1.21,3.63.98,4.86-.23,1.13-1.86,2.73-2.46,3.64-1.8,2.63-4.21,2.58-7.11,3.36-2.26.7-4.68.75-6.97.13.55,1.8,1,2.55.34,4.25-.39,1.07.1,2.79-.52,3.22-2.84,1.98-4.49,1.13-7.46-.35-.03,1.48-.42,3.48-.1,4.9.24,1.05,1.97,2.82,1.51,3.83-.92,1.96-1.8,3.88-2.7,5.84-.89,1.93-1.2,1.73-3.18,2.21-1.72.41-2.03,1.9-2.91,3.53-.55,1.03,1.56,2.98,2.17,3.87.79,1.11,3.41.14,2.86,1.96-.32,1.42-1,2.74-1.98,3.81-1,1.21-2.45,2.43-2.94,4-.73,2.35-1.34,2.45-3.36,3.63s.23,7.32.61,9.56c.15.82.13,2.77.77,3.31,1.51,1.31,3.03,2.6,4.53,3.9,2.63,2.25,4.43,1.86,7.83,1.93-3.07,1.38-6.15,2.8-9.22,4.18-2.46,1.13-2.93.48-5.45-.75-3.63-1.74-7.25-3.52-10.88-5.25-1.87-.9-2.17-3-3.03-5.02-2.03-4.8-5.35-9.5-4.74-14.85.9-7.98,1.8-15.92,2.7-23.88.86-7.66,1.21-15.65,2.65-23.22,1.8-9.53,3.61-19.07,5.42-28.62,1.1-5.81,2.2-11.61,3.29-17.39.46-2.48,1.35-5.23,1.46-7.75.08-2.12-.56-4.56-.83-6.67-.17-1.38,0-4.73-.72-5.91-.79-1.24-3.36-2.34-4.5-3.14-2.24-1.55-4.48-3.1-6.7-4.67-2.27-1.59-2.9-3.15-4.29-5.76-2.74-5.15-5.52-10.3-8.26-15.45-2.27-4.25-4.53-8.5-6.8-12.74-1.39-2.62.97-7.45,1.62-10.17.32-1.35.48-4.38,1.32-5.43,1.31-1.67,2.59-3.33,3.88-5,2.88-3.69,5.38-5.85,4.62-11.06-.17-1.18-.89-1.82-.01-2.69.13-.11-.31-1.8-.15-2.41.37-1.59-3.15-3.04-2.79-4.57.48-1.9.37-1.67-1.18-2.56-1.11-.66-1.11-.58-2.27.04-.84.53-1.61,1.16-2.29,1.87-.39.37.75,1.72,1,2.17-2.22.96-2.12,1.22-3.15-1.21-.45,1.32-2.69-.93-3.93-1.17-.65-.13-1.08.62-1.48.32-.68-.52-1.35-1.05-2.04-1.56-1.39-1.05-4.15-2.36-5.12-3.88-.82-1.28-.41-3.25-1.45-4.46-2.65-3.05-4.25-5.76-7.94-6.8-2.86-.79-7.61-1-9.88-3.21-1.97-1.96-3.97-3.91-5.94-5.87-1.29-1.27-3.12.07-4.69.56-3.52,1.08-7.12-1.48-10.47-2.83-2.7-1.1-5.42-2.18-8.12-3.28-.83-.34-2.45-.61-3.14-1.3-1.76-1.79-3.52-3.58-5.28-5.38-1.63-1.65-.66-2.63.01-4.94.44-1.51-2.36-4.46-3.14-5.66-.78-1.24-1.73-2.38-2.8-3.38-1.9-1.77-3.8-3.5-5.7-5.29-.44-.41.11-1.62.21-2.18.13-.58-.93-1.49-1.24-1.9-1.18-1.71-2.58-3.26-4.17-4.62-1.43-1.11-2.94-1.79-3.49-3.62-.31-1.04-1.1-5.98-1.97-6.38-1.76-.8-3.52-1.62-5.28-2.42.59,2,.99,5.87,2.24,7.39,1.91,2.28,3.56,4.07,4.69,6.9.44,1.27,1.26,2.38,2.35,3.18.96.83,1.21,2.14,1.66,3.39.59,1.22.98,2.53,1.14,3.87.1,2.15,1.03.62,1.69,1.1.7.54,2.14,1.84,1.98,2.95-.2,1.48-1.48,1.8-2.11.69-1.27-2.34-3.52-3.73-5.56-5.21-.58-.42-.37-3.1-.42-3.84-.08-1.17-1.77-1.94-2.56-2.6s-1.53-.34-2.38-1.1c-.99-.84-1.96-1.72-2.93-2.6,1.15-.13,3.9-.37,2.38-2.63-1.34-1.98-1.93-2.95-3.97-3.95-1.32-.65-1.68-2.89-2.22-4.29-.94-2.41-1.87-4.8-2.8-7.21-1.01-2.63-4.43-4.91-6.92-5.62-2.05-.56-2.76-.38-3.67-2.39-1-2.18-2.01-4.36-3.01-6.54-1.46-3.22-4.39-5.19-5.42-8.71-1.34-4.57-1.24-7.53-1.01-12.38.18-4.02.39-8.04.61-12.06.2-3.9-.72-6.33-1.94-10.08,2.24.53,4.44,1.2,6.59,2.01.08-3.28.23-3.67-1.89-5.95-1.5-1.59-3.16-3-4.97-4.22-1.65-1.17-3.41-1.17-5.21-1.94-2.93-1.29-3.36-1.39-4.67-4.48-1.51-3.57-6.82-5.45-6.47-9.43.31-3.63.06-3.35-2.86-5.19-.41-.27-2.17,3.6-3.39,1.72-.92-1.42-2.41-5.04-3.83-5.73-1.63-.65-2.97-1.87-3.77-3.43-1.28-1.89-2.45-4.52-4.04-6.09-1.31-1.32-3.25-2.24-4.76-3.28-3.39-2.28-7.08-4.09-10.96-5.37-1.62-.6-3.57.77-5.21.39-1.7-.39-3.71-2.28-5.24-3.21-2.1-1.29-2.69-1.76-5.02-1.53-2.08.2-3.12.76-2.34,3.41.65,2.24-7.88,4.55-9.75,5.16-.34-.63-.11-1.42.52-1.76.14-.08.3-.13.47-.15-1.44-.44-.35-4.62.56-5.11,1.68-.98,3.64-1.39,5.57-1.18-.55-.49-1.1-1-1.65-1.49.63-.45,1.25-.93,1.89-1.39-3.79.73-5.35,1.55-8.53,3.96-2.74,2.07-3.84,4.4-5.63,7.56.87.23,1.74.42,2.62.65-2.62,3.49-5.24,5.47-8.68,8.01-1.72,1.25-7.14,2.63-7.35,5.19-.2,2.31-7.26,3.6-9.26,4.19-.82.2-1.66.33-2.51.38-1.04.13-.52.68-1.31,1.2-1.32,1.09-3.08,1.46-4.73,1.01,1.69-1.63,3.43-2.05,5.35-3.25,1.45-.9,5.69-4.97,6.98-2.73.92-1.63,4.29-5.38,6.14-4.08-.62-1.74,2.55-2.86,2.9-4.81.3-1.62.32-2.01,1.39-3.08.7-.69,1.38-1.05.68-2.12-2.29,1.27-4.77,3.31-7.14,1.58-.82-.59-2.36-2.35-3.33-1.93-1.2.52-2.41,1.04-3.59,1.58-.42-2.43-.84-4.87-1.25-7.3-.59.34-3.72,2.6-4.17,2.27-1.17-.96-3.42-2.1-4.21-3.45-.86-1.45-.96-4.28-1.32-5.95-.31-1.41.82-2.49,1.51-3.66,1.35-2.32,1.2-2.93,3.69-2.7,2.07.21,2.38-1.46,4.19-2.21s3.28.69,4.17-1.55c.7-1.79-.34-2.11-1.56-3.46.56-.32,1.11-.62,1.65-.94-.77-2.34-2.65-.25-3.98.51-1.7.99-1.97-.18-3.67.03-3.39.44-7.2,1.14-9.08-2.56.42-.13.82-.56,1.25-.65-1.67-.58-3.88-.82-5.02-2.45,2.45-1.29,4.17-2.45,6.87-2.45-.18-.24-.38-.49-.58-.75,1.68-1.04,3.62-1.59,5.6-1.6-.1,2.7,1.96,2.29,4.04,2.84,1.82.46,2.39-.35,3.98-1.46-.73-.32-1.48-.65-2.21-.96.28-.1.56-.22.86-.32-.8-.65-1.07-1.39-.2-2.01-1.85-.14-3.67-.5-5.43-1.08-1.51-.51-1.49-2.9-2.97-3.59-1-.46-5.29-1.65-5.71-2.67-.2-.45.75-2.49.91-3.03.11-.38,1.07-.25,1.39-.27,1.59-.11,4.05.39,5.09-1.08,1.07-1.74,2.32-3.37,3.74-4.84,2.65-2.28,5.89-3.77,9.35-4.32,2.15-.37,3.91-.37,5.66-1.76,2.41-1.94,2.27-1.97,4.91-.56,2.35,1.25,9.02-.46,10.05,2.41.76,2.12,7.71,1.94,10.02,2.24,3.48.44,6.95.84,10.41,1.48,5.11.9,10.22,1.82,15.33,2.7,3.36.61,6.53,2.55,9.68,3.97.55.24,4.12-4.1,4.7-4.66.94-.99,2.79,1.89,3.88,1.41,1.82-.79,9.95-5.76,11.15-3.83-2.97,1.58-5.93,3.12-8.89,4.7,2.29,1.59,9.85-5.02,10.5-2.21.89-1.04,1.76-2.07,2.66-3.11.72-.83-1.07-1.08.24-2.14,2.27,2.63,4.53,5.08,7.02,7.46.79-2.53,1.1-3.39,2.96-5.04,1.13,1.18-.84,1.7.69,2.6.56.34-.35,1.55-.62,2.1.99-.25,2.83-.3,3.62-.93.3-.25-.37-1.45.2-1.51.54-.1,1.11-.17,1.66-.25,1.98-.27,4.6,1.6,6.43,2.39,3.77,1.63,8.08,2.22,12.02,3.28-.08-.28-.18-.56-.27-.86,2.52.1,3.83,1.29,6.02,2.76,1.62,1.13-3.34,2.83-3.7,3,1.68.52,3.45,1.42,5.18,1.28,2.87-.22,5.73-.45,8.6-.69,1.34-.1,3.67-.49,4.59.92,1.32,1.96,2.63,3.9,3.94,5.87-.2-.84-.41-1.7-.59-2.56-.13-.52.41-1,.34-1.49-.31-2.04-1.2-1.53-.08-3.5.77-1.34,6.63-1.49,5.31-3.53-2.83,1.15-4.93,2.07-7.92,2,.68-2.59,1.73-2.31,4.07-3.1,2.42-.79,2.74-1.03,4.98.24.63.35,1.03,1.83,1.37,2.48.44.89,1.11.76,2.01.97,1.8.42,3.57.97,5.29,1.65,1.48.56,9.65,1.49,9.99.35.7-2.34.8-3.45,3.38-3.45,1.59,0,3.46.87,5.02,1.27-.23.77-1.24,3.12-.99,3.83s2.52,1.7,3.17,2.14c-.83-2.66-1.8-4.97,1.43-5.49,1.34-.22,2.12-1.43,3.11-2.41.7-.68.21-1.59.04-2.56-.84.41-1.69.8-2.5,1.21-.31-2.62,1.58-3.03,3.42-3.18-.08-2.06-2.01-.59-3.26-1.07-.99-.39-4.4-1.04-4.83-2.1-.91-2.21-.86-3.64-.83-6.11.04-2.36,1.13-2.69,2.93-1.97.31-1.13-.45-1.53-1.41-1.42,1.76-1.14,2.01-.99,1.94-3.19.09-1.55-.25-3.09-.99-4.45-.66-1.27-.18-3.12-.1-4.57.07-1.14,1.93-.52,2.8-.51-3.2-3.52,2.43-2.53,4.62-2.52,2.74-.07,5.47.32,8.08,1.15-1.22,1.79-2.88,5.63-4.63,6.7-1.55.93-5.36.15-7.02.13,5.26.79-.79,4.21-.46,5.9,2.69-.48,4.19,1.89,4.69,4.4.31,1.63,2.96,3.6,4.01,4.9-1.32.87-2.62,1.76-3.91,2.63,1.29.49,2.34,1.36,3.53.54,1.24-.86,2.27.2,3.55.82-.62.42-1.25.86-1.87,1.28,1.25,1.07,1.91,1.1,1.51,2.8-.41,1.66-.69,2.06.82,3.01.87-.99,1.41-2.23,1.55-3.55.06-.61.58-3.08,1.68-2.42.69.44,3.1,1.35,3.28,2.21.31,1.43,1.22,3.11-.56,3.69,0-.35-.2-.73-.18-1.07-3.65,2.04,4.49,9.33,4.84,5.38.1-1.11-.06-1.79.75-2.48.38-.35,1.62-1.08,1.62-1.69,0-2.96.04-2.8,2.52-3.9-1-1.56-1.91-2.31-1.55-4.15.37-1.9,1.39-1.39,3.03-1.11,1.07.18,4.01.07,4.77.94.89,1.3,2.3,2.15,3.87,2.34-.84,1.53.51,2.53-.39,3.62-.58.68-2.5.42-3.34.49.53,1.55,1.38,2.98,2.48,4.19,1.32,1.24,1.93,2.22.49,4.04-.94,1.2-3.25,2-4.52,2.77-1.24.77-2.11-.86-3.11-1.82.51,1.15,1,2.29,1.52,3.45-.79-.41-1.58-.83-2.35-1.24.08.32.2.63.3.96-.82-.18-1.6-.38-2.41-.56-.54-.13-.1-1.51-.65-1.49-1.22.04-2.9-.46-3.53.94.75.45,1.49.89,2.24,1.32-.82,1.22-1.48,2.69-2.7,3.38-1.79,1-2.43.17-4.26-.82-2.86-1.49-5.38-1.36-8.57-1.51,2.2,1.11,4.4,2.22,6.6,3.33,1.6.8,4.28.52,6.04.76-.7,1.2-1.87,4.46-3.04,5.01-.71.49-1.51.82-2.35.99-.93-.1-1.82-.42-2.6.14-2.43,1.72-2.62,1.84-5.39.99-1.73-.52-3.5-.94-5.25-1.43,1.15.55,2.32,1.07,3.48,1.6-.24.22-.41.54-.68.76,1.27-.52,2.72-.33,3.81.51.87.49,2.24,1.79.77,2.46-1.24.63-2.64.85-4.01.65-.56-.04-1.45,1.96-1.74,2.39-1.39,2.2-3.62,4.56-4.17,7.22-.63,3.01-1.25,6.05-1.9,9.06,1.21.28,3.86.31,4.77,1.14,1,.91,1.6,4.45,2.1,5.78.87,2.43,1.42,1.56,3.77,1.03,1.22-.28,2.63.58,3.79,1,3.28,1.09,6.37,2.66,9.18,4.67.99.7,2.87,2.74,4.07,2.86,1.74.2,3.52.39,5.25.56.62.07,3.97.03,3.94.75-.1,2.43-.21,4.87-.31,7.29-.14,3.39,3.25,5.95,5.21,8.42,1.9,2.39,6.01-2.04,5.67-4.1-.35-2.17-.72-4.32-1.07-6.5-.2-1.15-1.7-2.69-2.34-3.67,2.12-1.38,6.25-2.93,7.74-5.05,1.35-1.91,1.69-7.12-.01-8.77-1.2-1.06-2.31-2.23-3.29-3.5-1.35-1.9-1.79-1.73-.1-3.29,1.87-1.68,2.01-1.45,1.32-3.93-.37-1.34-1.21-2.96-.79-4.32.77-2.48.83-2.93.08-5.38-.46-1.55.49-2.05,2.08-2.27,2.89-.35,5.55,2.15,8.39.83,1.8-.84,2.27.1,3.93,1.28.79.58,3.04,1.56,3.29,2.6.41,1.59,1.31,2.82,3.07,2.55,1.42-.2,2.38.48,3.69,1.13-.76,1.28-1.21,1.65-.96,3.1.24,1.37.66,2.66.11,4,.38-.08.79.1,1.17,0-.7.87-2.69,2.29-1.62,3.28,1.84-5.52,8.49,6.52,9.85-.91.3.34.86.37,1.17.7.75-1.58,1.94-3.11,1.62-4.88-.23-1.24,1.58-3.7,2.83-3.41-.15.66-.31,1.32-.45,1.98,2.87.14,4.8,6.02,6.16,8.4.76,1.31,3.08,3.96,3.18,5.46.06.82-1.39,1.98-1.22,2.77.07.37,1.51,1.21,1.77,1.43.87.52,1.67,1.15,2.36,1.89.52.87-.32,1.82.84,1.89,2.21.13,3.14.17,4.97,1.41,1.25.87,3.74,2.05,1.01,2.48-1.55.32-3.07.76-4.55,1.32.92.34,2.12-.32,3.11-.63-.68,1.22-2.84,1.34-4.05,1.7-1.18.38-.8,2.73-.17,1.9.44-.58,1.07-.98,1.77-1.13.73-.27.45-.68.87-.91,1.09-.58,2.3-.92,3.53-.99-.51-.05-.98-.31-1.3-.72.86-.03,2.59.08,2.95,1.11.49,1.35-1.01,1.25-.18,2.28.98-1.83,2.18-.86,3.73-.37,1.25.42.28,2.79.03,3.49-.51,1.38,1.07,1.86.03,3.43-.98.94-2.14,1.65-3.42,2.1-1.2.31-2.38.06-3.74.49-1.34.44-1.91,1.28-2.93,2.39-2.08,2.28-3.79,2.62-6.85,2.31-3-.33-6.03-.39-9.05-.2-2.73.17-5.55-.77-6.26,2.88-.2.96-2.84,1.24-3.56,1.74-1.18,1.04-2.26,2.19-3.21,3.45-1.82,1.96-2.8,4.29-4.95,5.85,3.67-1.77,5.63-5.64,9.3-7.43,2.52-1.21,9.35-5.07,11.13-.56-.3-.15-.62-.21-.93-.35,1.84,1.25-.66,2.18-1.59,2.98-1.18,1.03-2.15-.77-3.53.17.56.14,1.9,1.62,1.97,1.6.8-.31,1.68-.36,2.52-.14-.22,1.02-.81,1.93-1.65,2.56.42-.15.94.04,1.39-.04-.69,1.93,1.34,3.48,2.82,3.83-.17.13-.32.25-.49.37,2.12,1.03,4.21,1.9,6.05.55.06.34.13.68.2,1.01.44-.03.87-.16,1.25-.38-1.27-1.63,1.28-3.98,2.14-5.32,1.67.6.72,2.07.34,3.38,1.21-.96,2.94.91,1.9,1.38-1.38.6-2.65,1.41-4.18,1.15.34.27.51.79.83,1.07-1.73.7-3.48,1.41-5.21,2.11-.69.2-1.34.52-1.91.94-.75.66-.94-.86-1.58-.35-1.18.94-2.24,2.79-3.5,4-.86.82-1.69-.35-2.21-.54-1.83-2.6,2.58-4.87,4.05-5.94,1.05-.76.54.14,1.03.56.98.84,1.58-.32,2.49-1.14-1.15-.04-2.63-.46-3.64.24.15-.7.48-1.34.96-1.87-1.36-.34-3.07,1.42-4.19,2.15-.73.48-.72-.59-1.56.41-.42.49-1.41.2-2.01.2.89,2.82-3.88,1.8-4.53,3.07-.2-.2-.38-.39-.58-.59-.73,1.51-1.43,1.68-2.84,2.21-.94.37-.98,1.04-1.38,2.08-.58,1.48-3.28,6.46.42,6.07-.1-.23-.2-.48-.3-.7.3.26.56.56.77.9-1.1.77-2.41.1-3.58-.17-.58-.14-.38,1.58-1.24,1.63-2.73.21-3.95.35-6.29,1.93,1.67-.21,3.03-1.04,4.67-1.28-.18.14-.35.3-.54.42.46-.03.93.11,1.38.06-.95.67-2.04,1.1-3.2,1.25-1.04.07-2.86-.3-3.48.8,2.53.28-1.11,5.12-2.05,5.91.59-1.05-1.22-1.76-1.63-2.98.08,1.48,1.96,3.5,1.28,4.85-.68,1.41-1.93,3.04-2.29,4.43l-.27-.07c.11-.99.4-1.94.87-2.82-.66-.42-.34-1.76-1.67-1.39.1-1.01.32-2,.66-2.96.08-.15.93-2.08.03-1.43-2.17,1.58-1.52,2.6-.93,5.25-.61-.5-1.32-.87-2.08-1.07.54.79,1.87,1.04,2.29,1.84.32.62-.45,2.38-.28,2.96.31,1.07,1.79.52,1.39,2.29-.31,1.42-1.2,1.28-2.43,1.69,1.07,0,2.94-.35,2.67,1.25-.1.66-2.34.69-2.93.79.32.18.59.51.92.7-.49.15-.75.49-1.35.48.52,1.31,1.3.13,2.18.65-.62.32-1.22.68-1.83,1-.48.24-1.14-.52-1.52-.31-.73.44-1.48,2.15-1.98,2.91-.38.55-1.69.3-2.38,1.17-.53.88-1.21,1.66-2.01,2.29-2.9,1.72-3.42,2.49-4.98,5.69-.73,1.51-.27,4.18.44,5.7,1.18,2.54,2.15,5.16,2.9,7.85.42,1.46.82,5.23-.25,6.28-.79.8-1.48,1.87-2.41.55-.3-.41-2.01-1.96-2.04-2.08-.33-1.08-.76-2.13-1.28-3.14-.51-1.14-1.08-1.8-.73-3.15-.21.17-.42.37-.6.54-.51-1.73,1.08-4.21-.65-5.4-1.52-1.05-2.35-3.12-4.15-2.55-.97.31-2,1.03-2.88.42-.84-.71-1.77-1.31-2.77-1.79-1.58-.44-4.24,1.66-4.7-1.01-.3,2.34-5.47.65-7.01,1.87,1.07.1,5.04.59,2.07,2.01.31.17,1.93.72,1.98,1.01.2.83-.52,1.17-1.08,1.05.42-1.08-1.18-1.48-1.94-1.97.17.76-.17,1.03-.18,1.6-.72-1.51-1.37.07-2.34-.68-1.24-.94-1.77-1.82-3.21-1.31-.82.28-1.96-.48-2.73-.77-1.46-.55-3.79,1.11-5.19,1.72-2.31.94-7.81,5.02-7.84,8.35-.03,1.01,1.35,2.05,1.41,3.08-.12.86-.36,1.7-.7,2.49-.51,1.82-1.29,3.67-1.29,5.57.03,4.79.65,8.2,3.28,12.2,1.55,2.34,2.14,3.97,4.69,4.71.52.17,1.35,1.48,1.8,1.32,1.04-.41,2.1-.8,3.14-1.18.9-.36,1.85-.58,2.82-.65.75-.06,1.35.93,1.73.75.47-.16.91-.37,1.32-.63.24-.21-.37-.84,0-1.17.82-.55,1.42-1.37,1.7-2.32.59-2.03.42-4.39,2.56-5.23,1.52-.55,3.11-.87,4.73-.94,1.21.14,4.66-.56,3.57,2.04-.44,1.03-1.84,4.08-2.59,4.15.38.21.17.59,1.03.58-.34.28-.58.66-.91.89l.17.23c.15-.12.31-.22.48-.32-.46,1.21-.8,2.46-1.01,3.74-.55-.58-.78-1.4-.62-2.18-.34.44-.62.92-.84,1.43,1.62.07-.24,3.18.31,4.33.49,1.04-1.25,2.95-1.96,3.62,2.29.8,4.5.18,7.02.56.97.13,1.69-.73,2.66-.56,1.2.02,2.39.19,3.55.51,2.14.94,3.5,2.43,3.12,4.91-.27,1.59-.51,3.18-.75,4.77-.15.93-.9,1.73-1.03,2.62-.54,4.32,4.69,11.34,8.61,9.75,2.42-.98,3.66-1.98,6.21-1.21,2.46.73,3.41,2.08,5.23,4.08-.13-3.05,3.67-7.2,5.12-9.68.45-.76,3.28-1.22,4.04-1.51,2.05-.73,4.11-1.48,6.18-2.22,1.89-.69,5.29.96,7.16,1.39,4.88,1.14,9.76,2.28,14.64,3.41,2.65.62,5.32.66,7.36,2.6,3.81,3.67,7.61,7.32,11.43,10.98,2.41,2.29,7.67,2.36,10.72,3.11,2.86.72,5.11,5.47,6.92,7.84,1.83,2.39,3.66,4.79,5.5,7.19.44.59,1.42,2.51,2.1,2.74,3.91,1.42,7.84,2.83,11.77,4.25s7.85,2.83,11.77,4.25c3.25,1.18,6.61,4.76,9.51,6.83.54.06,4.17.1,4.26.51.39,1.76.82,3.5,1.21,5.25v.05ZM255.48,213.95c0,1.22-3.98,2.2-5.16,2.14-1.76-.07-1.93,0-3.31,1.22-.89.79-1.49,1.68-2.76,1.05.2-.83.86-1.48,1.7-1.65-.45-.68-.54-.17-.77-1.07-.93,1.16-1.74,2.41-2.42,3.73.66.17,1.29.35,1.93.54-.14.18-.27.38-.42.59,2.63.24,3.74-1.04,6-1.87,2.05-.79,3.96-1.91,5.66-3.31,0-.63.1-.97-.44-1.38h0ZM258.9,213.11c2.01,1.94,6.32-1.79,4.12-2.67.62-.52,1.22-1.05,1.83-1.59-1.25.49-3.87,2.49-4.77,2.11-1.58-.7-3.59.25-5.24.6-3.48,4.53,2.63.21,4.05,1.56h0ZM218.2,199.67c1.15-1.11,2.31-2.25,3.48-3.38,1.28-.56,2.59-1.14,3.87-1.72,1.07-.46.42-1.89,1.94-2.15-.14.34-.23.72-.39,1.03.9-.38.75-1.48,1.62-1.94-.04.53-.22,1.04-.52,1.48.91-.56,1.84-1.2.79-2.08,1.05.07,2.06.4,2.94.96.79.34,1.73-1.01,2.51.18,1.43,2.22,1.42,3.48,4.29,2.98-.7,2.01.45,1.25.86,2.63.14.49-.59.82-.23,1.32.3.44.68.8.37,1.34s3.65,1.68,4.33,1.84c1.91.39,4.22.45,6.08.86,2.24.49,2.11,3.45,3.53,4.73-1.25-.72-.83.6-.94.62-.76.21-2.05-.75-2.76-.07-.13-.35-.13-.3-.46-.54.35-.34.24-.45.44-.84-1.27.17-.59-1.77-2.1-1.01,2.11,1,.63,2.6.15,4.01-.23.66.14,1.98-.27,2.45-.66.73-1.32,1.46-1.98,2.22-.18-.94-.23-4.01-1.41-4.07-.52-.03-2.7,1.98-2.94,1.1-.14-.49,1.08-1.79,1.28-1.91.96-.63.7-2.18.17-3.08.27-.03.24.03.49.06-.35-1.63-1.65-1.18-2.56-2.14-.77-.82-3.49-1.13-2.17.62-1.56.13-1.22,1.62-2.01,2.46.08-.49,0-1.11.04-1.62-.82,1.79-2.91,2.22-2.38,5.11.48,2.56.91,4.32-.35,6.87-2.39,4.84-3.6-1.39-3.76-3.8-.1-1.53.65-3.21,1.03-4.66.3-1.13,1.38-2.76,1.21-3.83-.94.62-1.49,2.86-2.66,2.6.62-1.87,1.63-3.59,2.96-5.04.04.25.07.52.13.79.39-.37.73-.37,1.13-.65-.15.23-.31.45-.45.69l.28.23c.97-1.7,3.87-2.62,5.29-.96.42-1.18,1.46-.59,2.45-.45-.55-.54-.83-1.6-1.43-1.87-.79-.38-1.98-.04-1.59-1.32-.7.11-4.83,1.53-5.21,1.32-.94-.54-1.58-.08-2.28-1.03-.68-.96-1.63-.89-2.63-.34.32-1.09,1.13-1.96,2.18-2.38-2.15-1.69-6.23,4.12-9.08,2.6.11-.27.21-.54.32-.77-1.18.39-2.36,1.18-3.57.55h-.01ZM145.02,110.6c-.38-.03-.77-.37-1.15-.37.32-.24.56-.68.91-.89-1.34-.17-2.24,1.48-3.57,1.69-1.4.39-2.9.26-4.21-.37.46-1.42,2.62-1.84,3.79-2.39-2.46-.9-3.04-1.13-5.46-.18-1.49.58-3,1.1-4.5,1.6-1.63.55-3.32.77-4.94,1.32-.83.27-4.45.44-1.84,2.15.18-.13.65-.46.72-.52-.1-.2-.17-.34-.27-.51,1.61-.41,3.29-.44,4.91-.08-.07-.2-.16-.4-.28-.58,1.79-.36,3.65-.01,5.19.97-.83,1.36-3.07.17-4.38.55.6.37,1.1.87,1.48,1.46-.69.22-1.33.56-1.9,1,1.11,1.34-.79,1.49-1.66,1.66,1.2.93,2.56.27,3.79.82.87.39,2.01-1.82,2.8-2.32,1.28-.84,3.57-.18,1.74,1.01-.73.46-.84,1.11-1.18,1.39-.3.28-1.07.28-1.39.55,1.79,1.63,3.57-2.98,5.84-2.29-.25-.74-.88-1.29-1.65-1.43,1.83-1.91,5.46.93,6.29-1.17-.35.08-.7.12-1.05.11.07-1.27.93-.59,1.22-1.32.25-.62.51-1.21.75-1.83v-.04ZM169.69,129.12c-1.91-.83-4.97-1.42-6.81.06-.62.68-1.19,1.4-1.72,2.15-.67.87-1.69,1.4-2.79,1.45-1.24.14-3.26.04-3.87-1.53-.17-.42-2.29.07-2.88-1.01-.15-.3-2.15-1.14-2.41-.91-.44.39,1.98,1.49,2.38,1.42-.7,1.66,3,2.94.73,3.49-.7.18-1.34-.39-1.84.38-.54.82-.23,1.14-1.2,1.35.16.12.31.25.45.39-.75.62-1.62,0-2.55-.01.04.15.07.34.1.49-.96.03-1.7-.51-2.6-.42,1.21,1.65,4.28,2.01,6.18,2.31,1.18.18,5.8-.49,5.04-2.03,1.45-1.27,2.32-.86,3.9-1.58.96-.67,1.84-1.46,2.62-2.35-.22.03-.45.04-.68.04.72-.83,1.66-1.44,2.72-1.77,1-.25,1.66.17,2.52-.77-.76.34-.86.21-1.58.03.68-.17,1.38-.37,2.1-.52-.65.12-1.33-.02-1.89-.38.51.04,1.04-.03,1.55.04-1.89-.66-3.53.66-5.31,1.76.62-2.2,6.5-3.52,6.81-1,.37-.32.72-.68,1.03-1.07h0ZM201.68,178.85c.17-1.2.06-.65.77-1.04-.04.31-.11.6-.17.91.16-.14.26-.33.31-.54.93.35.66,1.55.54,2.45.27-.52.75-1.1,1.37-.79.44.21-.37,1.42-.49,1.91.33-.23.69-.41,1.07-.55-1.02.85-1.39,2.25-.91,3.49.38,1.24,1.14-.21,1.07-.89.24.14.51.14.73.27-.51-1.11.42-2.35-.32-2.98-.76-.68-1.28-2.42-1.59-3.22-.58-1.49-3.45-7.75-2.18-8.47l-.31-.13c-.41.51-.51.42-1.11.54.13-.63.59-1.14,1.2-1.34-.2-.19-.42-.37-.65-.54-.91,1.65-.9,2.15.42,3.1-1.03-.45-2.96-1.43-3.38.18-.75,2.76-.31,2.22,1.72,2.74-2.34.52.52,3.28,1.11,4.45.27.15.54.31.82.46v-.03ZM6.68,141.22c-1.93-.82-2.88.62-4.94.39.86,1.32,2.17,1.55,3.49,2.03.22-.72,1.03-.51,1.79-.59,0-.17-.02-.33-.06-.49-.09-.56-.64-.51-.28-1.34h0ZM122.78,79.54c1.77.89,3.21,1.45,4.55,2.98,2.15,2.48,1.87,2.45,4.62.87.42-.25.84-.49,1.28-.75.39-.21.27.63.55.58.93-.33,1.83-.73,2.69-1.21l.79-3.91c1.27.83,2.6-.22,2.97-1.59.31-1.2.91-1.14,1.97-1.62,2.29-1.01,5.94-1.75,7.87-3.45,1.24-1.1,1.13-1.66-.27-2.66-.95-.78-1.98-1.46-3.07-2.03-2.24-.92-4.64-1.84-6.57.31.14-.34.11-.77.24-1.11-2.6.73-4.91-2.31-7.32-1.97-2.87.42-5.76.82-8.63,1.22.49.89,2.63,3.74,2.15,4.18-.96.92-3.31,3.14-1.86,4.39-2.53.24-.66,1.18-1.6,2.42-.8,1.03-2.12,2.07-1.77,3.59.49-.03.98-.12,1.45-.27h-.03ZM133.95,55.59c-1.03-.14-2.04-.28-3.07-.44-1.84-2.28-.15-2.97,2.08-3.19,1.39-.17,3.45-2.76,4.53-3.69,1.62-1.39,2.35-2.22,4.36-2.49.83-.25,1.71-.33,2.57-.24,1,.37,1.87,1.01,2.79.14-.49-.17-.58-.44-.91-.63,2.08-.8,2.82-.01,4.8,1.06-1.31.48-4.05,1.87-.97,2.44-.53-.04-1.06.07-1.53.32,2.35,1.18-1,3.67-2.27,4.01-1.91.52-4.04-1.65-1.87-3.05-.38-.38-1.66-.52-1.66.28,0,1.66-.9.84-1.84,1.44.56.1.93.63.83,1.19-.04.21-.13.39-.28.54-1.11,1.27-1.62-1.03-2.21-.75-1.04.49.63,1.77,0,2.46-.56.65-1.73.76-2.48,1.01.23-1.51-.9-2.59-1.73-1.81-.42.42.35,1.62-1.11,1.41h-.03ZM156.3,42.71c-1.93-1.7-1.96-1.91-4.28-1,.83.58,1.68,1.15,2.52,1.74.59-.26,1.17-.51,1.76-.75h0ZM42.6,151.62c.93.66,2.22-.35,2.62-.96.15.14.3.3.45.42.15-.23.32-.42.46-.63-.62-.27-1.25-.52-1.86-.79-.82.37-1.44,1.09-1.69,1.96h.01ZM104.21,170.1c.15-1.65-3.88-1.05-3.93-.69-.18,2.08,4.33,9.82,5.88,7.95-.45-.42-.9-.82-1.35-1.24-.54-1.96-.75-4-.61-6.02ZM40.5,153.79c-2.59-1.56-2.95,3.87-.27,3.66.77-.06,1.38-1.35,2.34-1.48.84.03,1.54-.63,1.57-1.47,0-.06,0-.13,0-.19.69.32,1.15.11,1.45-.63-.27-.06-.52-.13-.77-.17.59-1.7-4.59-2.03-4.32.27h.01ZM126.99,190.41c-.37-.63-1.49-.82-2.1-1.01-.92-.3-1.04-.91-1.53-1.83-1.49-2.72-1.94-2.11-4.63-3-2.12-.72-2.82-1.72-5.01-1.01,3.55,4.36,7.3,6.82,12.03,9.37,3.05,1.11,2.73.03,1.25-2.5v-.02ZM625.83,401.15l.1.14c.66,3.33,1.73,5.9.44,9.01-.49-.48-.98-.98-1.48-1.48.38,3.3,0,6.65-1.11,9.78-1.72,5.73-3.43,11.46-5.14,17.21-.46,1.56-.96,3.15-1.41,4.73-.06.2-3.76,1.31-4.25,1.55-.73.34-4.22-.96-4.35-1.74-.25-2.08-.63-4.13-1.14-6.16-.6-2.15-1.11-3.8-.37-6.07.6-1.87,2.8-3.79,3.01-5.73.21-1.8-1.03-4.67-1.43-6.43-.22-1,.68-4.77,1.51-4.9,2.02-.4,3.96-1.11,5.76-2.11,1.84-.93,2.49-2.49,3.91-4.11,1.76-2,2.55-2.03,2.66-4.87.16-3.58,2.56.14,3.29,1.18h0ZM826.65,307.28c.46.41.91.8,1.36,1.22.3-1.07-.67-1.35-.52-2.32.28-1.74.58-3.52.87-5.28.1-.68,1.35-1.11,1.97-.98,1.89.38.94,1.51,3.1.44.67,1.46-.56,1.97-.34,3.03.42,2.01,1.22,1.03.52,3.32-.09.62-.27,1.23-.52,1.8-.25.41-1.34-.38-1.29.38.1,1.93-1.29,1.21-.22,3.35.53,1.08-.03,2.53,1.46,2.6.52.03.65-1.14,1.39-.98.58.1,1.14.31,1.65.62.54.42,1.12.77,1.74,1.05.48.13.53-1.15,1.1-.56,1.2,1.25.22,2-1.14,1.31-.1,1.8,1.94,1.25,1.01,3.25-.55-.37-2.32-1.14-2.32-1.82-.04-1.84-.32-1.65-1.9-2.24-.13.76-.25,1.52-.38,2.29-.33-.63-.79-1.16-1.36-1.58-1.63-.93-1.15.13-2.46-.03-1.43-.18-2.72-1.93-.87-2.87-.87-.34-2.34-.45-2.51-1.53-.25-1.36-1.01-3.25-.35-4.49v.02ZM831.7,282.81c-.5,2.15-1.3,4.22-2.38,6.15-1.11-1.67-2.63-3.17-2.2-5.43.38-2.1,1.66-3.94,3.5-5.02,3-1.42,1.41,2.72,1.05,4.31h.02ZM825.06,323c.32.23.61.5.86.8-.18.61.37,2.49.21,2.6-.59.45-2.35,1.32-2.46,2.08-.48,2.83-2.62,3.31-4.85,4.69.96-1.86,2.25-3.53,3.8-4.94,1.69-1.6,1.93-2.87,2.43-5.23h.01ZM844.21,330.25c.77-.34,1,.69.89,1.45-.2.21-.41.42-.6.65.22.03.39.27.77.27.06.35.04.71-.04,1.05,1.29.07.2,3.42-.01,4.31-.17-.1-.32-.2-.49-.3-.03.66-.07,1.32-.1,2-.7-1.13-.2-2.27-1.01-3.38-1.63,1.2-.76,2.12-.46,3.53.39,1.89-1.8,2.73-1.13.55h-.27c-.45,1.6-2.98-.27-3.36-1.28-.6-1.58,1.48-4.55-1.66-4.12.11.41-.04.92.08,1.32-.69-.45-.69-.17-.76-1.08-.41.46-.52.27-.79.98-.52-3.04-1.76,1.14-2.39,1.66-1.41-1.98,1.03-3.56,2.38-3.97.73-.23.24-2.11,1.63-2.01,1.22.07,1.34,1.49.65,2.34,1.18-.46,1.77-2.62,3.05-1.67-.13-1.13.2-1.83,1.13-1.24.45-.65.25-.51,1.22-.34-.13-.83-.27-1.65-.39-2.49.85.22,1.51.91,1.7,1.77h-.02ZM828.77,390.87c1.22,2.87-3.29-.04-4.73-.62-.13-2.23,4.19-.64,4.73.62h0ZM819.5,386.77c.9-.03,1.45-.41.98-1.35,1.76-.66,6.25,1.65,2.07,2.35-2.86.48-4.74.7-7.57-.23.58-1.32.49-1.96,1.86-1.93.99.09,1.92.49,2.66,1.15h0ZM831.63,388.02c-.66.08-.86-.8-1.87.08-.6-.68-4.56-.24-3.07-1.9,1.29-1.46,4.07.93,5.38.14.63-.37,1.34.69,1.9.2,1.01-.89,1.11-1.01,2.39-.93,2.12.15,3.38-.55,5.49.24-1.46,1.34-4.53.48-6.28.52-.8.03-1.41,1.28-2.7,1.05-.58-.1-.72.52-1.22.59h-.02ZM833.4,376.46c.14-.75.91-3.43,1.59-1.41-.16-1.41.94-2,1.41-.44-.63-.15-1.21.38-.7,1.08.72.98.01,1.31-.63,2.29-.55-.52-1.12-1.03-1.66-1.53h0ZM795.17,357.62c.14-1.14.3-2.29.42-3.42.63-.38,1.25-.77,1.87-1.14.34,2.05,3.29,1.97,4.78,2.35-1.59-1.58-1.17-1.52-.03-3.46.9-1.53,2.29-1.56,3.87-2.07,1.45-.46,1.97-1.9,2.83-3.21,1.24-1.87,1.56-1.87,3.65-2.41,1.66-.44.66-1.45,1.82-2.77.65-.72,2.62-3.86,3.52-3.98.82-.11,2.98,2,3.58,2.74.42.54.94,1.63,1.6,1.79.84.21,1.36.1,1.72,1.01-1,.27-2.01.56-3.03.84.42.56.83,1.13,1.24,1.69-.77.15-3.39.13-3.42,1.42-.07,2.66.75,2.49,1.55,4.77.14.41-.44,1.2-.27,1.55.3.62,1.35,1.22,1.82,1.66,1.91,1.76.97,2.07-1.11,1.62-1.03-.23-1.83,1.82-1.76,2.95.17,2.52.2,2.51-1.59,4.07-1.31,1.15-1.77,1.2-1.8,2.97-.03,1.9-.07,3.79-.11,5.7-.93.11-.96-.68-.69-1.56-1.34.65-2.67,1.32-4,1.98-.17-.66-.25-2.05-.87-2.32-.6-.23-1.49.17-1.89-.06-2.46-1.55-2.72-.97-5.25.45-.13-.75-.25-1.52-.38-2.27-.82.39-4.07,1.73-4.24.06-.2-1.91.07-4.71-1.43-6.02-.27.86-.13.48-1.03.9.24-1.25-.17-.58-.39-1.34-.16-.55-.34-1.07-.49-1.6-.14-.49.55-.66.45-1.04-.14-.63-1-1.2-.91-1.89v.03ZM840.16,391.38c-.72,1-2.11.86-3.2,1.08,1.34-1.21-.35-1.74.7-2.73,1.05-.78,2.2-1.4,3.42-1.84.37-.17.37-.87.7-1.04.6-.19,1.22-.32,1.84-.39,1.33-.23,2.67-.38,4.02-.46-.52,1.83-4.12,2.76-5.56,3.42-.81.45-1.47,1.13-1.91,1.94l-.02.02ZM273.58,301.54c-2.24-.35-2.98.62-4.8-.68-.63-1.9,4.69.27,5.97-.69-1.32-1.94-1.07-2.62-3.18-3.62,2.03-.94,2.6-.3,4.73-.25.65-.08,1.28-.25,1.89-.51.69-.38,1.84.38,2.53.59.93.31,1-.39,1.55.65.72,1.41.8,1.41,2.24,1.72.59.14,1.91.93,1.56,1.55-.9,1.51-.63.37-1.93.37-1.74,0-2.82.51-4.35.56-.3,0-.52-.84-1.39-.24-.49.34-.49,2.22-1.03,2.42-1.2.42-1.01-1.63-1.45-1.86-.59-.3-1.66.08-2.32-.01h-.01ZM438.42,121.66c-1.05-.3-3.2,1.75-4.15,2.34-.82.13-1.65.24-2.48.35-.86.11-.69.72-1.38,1.06-1.29.61-2.75.7-4.11.27-.82-.06-1.64-.24-2.41-.54-.39-.25-.82-1.53-1.28-1.48-1.79.22-3.56.46-5.35.69-.69-1.86,2.04-1.35,2.6-2.97-.24-.03-.46-.06-.7-.07.04-.24.08-.46.14-.72-.93.14-1.31-.46-.65-1.2-1.25,0-4.93.82-5.25-.84,2.03.03,4.26-.89,6.53-.82-.01-.22-.04-.44-.06-.65-.72.33-1.55.26-2.21-.17.77-.38,1.53-.76,2.31-1.14-.93-.21-2.8-1.1-3.69-.75-1.9.75-2.42,1.13-4.26.32.65-.34.49-.59,1.31-.46,0-.3.01-.62.03-.92.54.32,1.45.83,1.8.18.32-.65-1.65-.61-.56-1.93.9-1.1,3.76,2.03,3.46-.79-.94-.17-1.72.04-2-1.03,2.15-.03,2.05.31,3.71,1.73.31.27,1.59.54,1.65,1.14.04.54-.36,1.02-.9,1.07-.11,0-.22,0-.32-.03.52.94,1.08,1.86,1.69,2.74.33-.9.71-1.79,1.14-2.65.62-1.01,1.87.13.9-2.15,1.21-.27,1.93,1.15,2.74,2.01-.37-1.07.07-2.36,1.22-2.32,1.42.04,1.69,1.06,2.55,2.29-.13-.82-.24-1.63-.37-2.46,2.18.99,2.77-.14,5.04.07-1.32-3.42,6.25-.34,4.69,2.28,1.28-.48,2.14.32,3.21.96.54.32-.27,1.83.8,2.55-.9.87-1.59,2.15-2.87,1.45.06,1.76-.93,3.01-2.51,2.57h-.02ZM419.73,86.07c-.34-1.35-1.7-4.47-1.25-5.81,1.18-3.41,1.89-7.73,4.26-10.33,1.56-1.76,3.15-3.5,4.76-5.26.44-.48-.68-4.5-.77-5.19-.25-1.52-.08-3.96-1.36-4.83l-4.77-3.25c2.31-2.27,4.64-4.55,6.95-6.81-2.45-1.66-4.02-2.31-5.21-5.17-.92-2.17,1.91-5,3.03-6.84,1.24-2.04,3.55-2.89,5.42-4.18,2.01-1.36,3.83-2.98,5.4-4.83-.61-.52-1.21-1.04-1.82-1.55,2.14-.44,4.59-.52,6.53-1.63,2.42-1.41,4.84-2.8,7.28-4.21-2.66-1.04-5.6-2.77-8.39-3.28-2.01-.35-6.18-.8-7.57.93-.87,1.11-1.51,2.73-2.9,2.49-1.67-.27-3.35-.55-5.02-.83-1.91-.32-5.73,2.32-7.57,3.11.3-.55,3.86-6.18,1.31-6.26-2.22-.07-4.35.37-6.21-1.14,3.01-1.08,6.01-2.18,9.02-3.27-5.87-2.57-11.08-5.24-17.31-6.11-6.96-.97-13.58-2.28-20.56-1.67-2.51.21-5,.44-7.49.66-.84.07-2.59-.14-3.36.3-1.2.69-1.36,3.45-2.93,3.17-2-.35-3.98-.7-6-1.04-2.43-.42-5.33-1.67-7.63-.65l-10.13,4.64c3.2,2.04,6.71,3.53,8.77,6.95-5.51-2.1-11.17-3.76-16.94-4.97-1.8-.37-4.43.56-6.25.79-4.1.55-8.18,1.1-12.27,1.63-1.79.24-4.6.01-6.26.87-2.32,1.2-4.64,2.41-6.97,3.6-5.73,2.96-11.45,5.91-17.17,8.85,2.11,2.32,4.66,1.94,7.6,2.28-.63,1.6-1.27,3.22-1.9,4.83-.69,1.8-.96,1.45-2.79,1.53-2.51.19-4.99.67-7.39,1.44-3.33.97-6.67,1.94-10.02,2.9-.79.22-.79,2.24-.96,3.05-.13.62,1.41,2.14,1.74,2.6,1,1.37,2.27,4.07,3.69,4.91,1.96,1.14,3.9,2.31,5.85,3.45.97.59,3.73,2.97,4.86,2.81,2.21-.27,4.42-.56,6.63-.84,3.97-.51,7.45.3,11.41.96,2.04.34,4.07.69,6.08,1.03,1,.17,3.07,3.88,3.71,4.73,2.73,3.5,4.21,7.68,6.07,11.85,1,2.25,1.32,2.46.54,4.77-.73,2.17-1.94,3.48-.39,5.15,1.62,1.72,3.63,2.67,3.03,5.15-.59,2.43-1.6,3.77.03,5.57,2.05,2.27,1.91,2.24,4.67,1.42,2.01-.59,4.01-1.18,6.04-1.77-.2,1.52-.38,3.03-.56,4.53-.06.51-1.94.97-2.34,1.13-1.39.59-2.77,1.2-4.17,1.79-.31.13-.35,2.12-.38,2.46-.27,2.01-1.38,5.5-.7,7.43,1.03,2.86,2.04,5.7,3.07,8.57,1.65,4.62,4.55,8.4,7.15,12.46,1.53,2.42,3.07,4.83,4.6,7.23.76,1.2,2.93,1.42,4.12,1.86,2.46.91,4.9,1.8,7.36,2.7.61.23,3.98.3,4.11-.11,1.52-4.74,3.04-9.5,4.57-14.27,1.21-3.81,2.55-7.54,3.93-11.27.75-2.03.66-2.07,2.52-2.67,2.46-.8,4.93-1.62,7.39-2.41,1.52-.51,3.8-.77,5.18-1.7,1.55-1.06,2.93-3.66,4.15-5.17,1.08-1.35,1.49-2.2,3.01-2.59,2.31-.63,4.62-1.25,6.92-1.86,3.32-.87,7.39-1.22,10.4-3.08,3.77-2.29,7.52-4.59,11.27-6.9,1.79-2.17,1.93-2.1,1.28-4.84h0ZM797.55,300.66c-.48.2.27.77-.53.72-.56,0-1.12-.15-1.59-.46-1.48-.84-1.17-1.22-1.15-3.07,1.83-1.17,3.11-3.59,5.73-2.11.04-.23.1-.46.16-.69.9.15,1.2.92.98,1.9-1.03-.07-1.25,1.35-1.42,2.32-.14,1.07-1.48,1.1-2.18,1.41h.01ZM785.95,378.27c-1.03-2.08-1.82.24-3.1-1.35,0,.52-.22,1.1-.2,1.63-2.76-2.53-5.19-5.15-7.61-7.81-1.29-1.2-2.39-2.59-3.25-4.12-.84-1.83-1.66-5.19-3.01-6.6-.55-.59-1.42-.27-1.66-1.17-.34-1.31-.7-2.6-1.04-3.9-.58-2.2-3.36-1.72-3.46-4.12-.07-2.15-2.58-2.63-3.74-3.67-.52-.45-3.52-4.21-2.9-5.11.38-.55,4.14.89,4.93.97,2.51.28,2.11,1.25,3.45,3.15,1.01,1.36,2.97,2.65,4.17,3.79,1.45,1.38,3.24,1.91,4.42,3.55.63.87,1.34.77,2.36.96,1.67.32.53.56,1.51,1.31s1.53.07,1.53,1.56c0,.8,1.74.66,2,1.98.18.89-.87,1.25-.69,2.43.1.76,1.65,1,2.25,1.25.52.23.6,2.25.72,2.84.21,1.13,1.51,1.07.17,2.41.83-.96,2.28-1.07,3.24-.25.75.65,1.01,1.71.63,2.62-.73,2.14-.24,5.26-.7,7.64h0ZM792.3,367.53c1.28,1.01,1.18,3.11-.84,2.45-.11-.51-.69-3.66.84-2.45h0ZM808.66,383.94c3.1-.69,1.38,1.83,2.72,3.55-1.11-.51-2.24-1-3.35-1.48-1.87.35-2.59-.25-4.4-.42-.3-.01-.45.54-.84.48-.62-.07-1.22-.17-1.86-.23-.79-.17-1.55-.43-2.28-.77-.86-.41-1.75-.74-2.67-.97-.89-.08-1.91.58-2.79.41-1.67-.32-3.34-1.36-5.14-1.72.06-.27.13-.56.17-.86-1.51-.35-3.88-.52-2.1-2.6.62-.72.66-1.07,1.51-.87s1.7.84,2.05-.18c.62.41,3.55,1.07,3.73,1.39,1.2,2.03,2.73,1.58,4.88,1.8.55.06,1.32.44,1.52-.21.34-1.13.8-1.66,1.62-.63.67.86,3.25,1.11,4.25.65-.19,1.31.71,2.53,2.02,2.73.32.05.65.03.96-.05h0ZM784.26,366c.6-.79.96-2.08,1.8-.79-.04-.27-.1-.54-.13-.82,1.98-.18.73,3.48,3.18,3.39-.65.54-.75,1.08-.27,1.65-.62-.03-1.2-.29-1.65-.72-.55-.45-.3-.79-.72-1.25-.31-.35-.52-1.15-.86-1.13-.48.12-.99,0-1.36-.32"/>
    </g>
  </g>
</svg>